<mxfile host="app.diagrams.net" modified="2023-10-17T18:29:45.079Z" agent="Mozilla/5.0 (Macintosh; Intel Mac OS X 10_15_7) AppleWebKit/537.36 (KHTML, like Gecko) Chrome/117.0.0.0 Safari/537.36" etag="YpibjaQPdOYdw5gzd5bd" version="22.0.4" type="device">
  <diagram name="Page-1" id="1PkNxpy4kt1irddPKHPM">
    <mxGraphModel dx="5736" dy="3640" grid="1" gridSize="10" guides="1" tooltips="1" connect="1" arrows="1" fold="1" page="1" pageScale="1" pageWidth="1920" pageHeight="1200" math="0" shadow="0">
      <root>
        <mxCell id="0" />
        <mxCell id="1" parent="0" />
        <mxCell id="FhZOoO67xV3kqyt6doWe-555" value="" style="rounded=0;whiteSpace=wrap;html=1;" vertex="1" parent="1">
          <mxGeometry x="820" y="-315" width="150" height="60" as="geometry" />
        </mxCell>
        <mxCell id="FhZOoO67xV3kqyt6doWe-531" value="" style="rounded=0;whiteSpace=wrap;html=1;" vertex="1" parent="1">
          <mxGeometry x="-1450" y="525" width="150" height="60" as="geometry" />
        </mxCell>
        <mxCell id="FhZOoO67xV3kqyt6doWe-524" value="" style="rounded=0;whiteSpace=wrap;html=1;" vertex="1" parent="1">
          <mxGeometry x="-1000" y="-195" width="230" height="60" as="geometry" />
        </mxCell>
        <mxCell id="FhZOoO67xV3kqyt6doWe-490" value="" style="rhombus;whiteSpace=wrap;html=1;" vertex="1" parent="1">
          <mxGeometry x="-710" y="430" width="130" height="100" as="geometry" />
        </mxCell>
        <mxCell id="FhZOoO67xV3kqyt6doWe-3" value="&lt;span data-sheets-userformat=&quot;{&amp;quot;2&amp;quot;:513,&amp;quot;3&amp;quot;:{&amp;quot;1&amp;quot;:0},&amp;quot;12&amp;quot;:0}&quot; data-sheets-value=&quot;{&amp;quot;1&amp;quot;:2,&amp;quot;2&amp;quot;:&amp;quot;Employee ID&amp;quot;}&quot; style=&quot;font-size:10pt;font-family:Arial;font-style:normal;&quot;&gt;Employee&lt;/span&gt;" style="rounded=0;whiteSpace=wrap;html=1;" vertex="1" parent="1">
          <mxGeometry x="790" y="565" width="120" height="40" as="geometry" />
        </mxCell>
        <mxCell id="FhZOoO67xV3kqyt6doWe-5" value="&lt;meta charset=&quot;utf-8&quot;&gt;&lt;span data-sheets-userformat=&quot;{&amp;quot;2&amp;quot;:513,&amp;quot;3&amp;quot;:{&amp;quot;1&amp;quot;:0},&amp;quot;12&amp;quot;:0}&quot; data-sheets-value=&quot;{&amp;quot;1&amp;quot;:2,&amp;quot;2&amp;quot;:&amp;quot;Employee First Name &amp;quot;}&quot; style=&quot;font-size:10pt;font-family:Arial;font-style:normal;&quot;&gt;Employee First Name &lt;/span&gt;" style="ellipse;whiteSpace=wrap;html=1;" vertex="1" parent="1">
          <mxGeometry x="520" y="520" width="110" height="50" as="geometry" />
        </mxCell>
        <mxCell id="FhZOoO67xV3kqyt6doWe-6" value="&lt;meta charset=&quot;utf-8&quot;&gt;&lt;span data-sheets-userformat=&quot;{&amp;quot;2&amp;quot;:513,&amp;quot;3&amp;quot;:{&amp;quot;1&amp;quot;:0},&amp;quot;12&amp;quot;:0}&quot; data-sheets-value=&quot;{&amp;quot;1&amp;quot;:2,&amp;quot;2&amp;quot;:&amp;quot;Employee ID&amp;quot;}&quot; style=&quot;font-size:10pt;font-family:Arial;font-style:normal;&quot;&gt;Employee ID&lt;/span&gt;" style="ellipse;whiteSpace=wrap;html=1;fontStyle=5" vertex="1" parent="1">
          <mxGeometry x="510" y="585" width="110" height="50" as="geometry" />
        </mxCell>
        <mxCell id="FhZOoO67xV3kqyt6doWe-7" value="&lt;meta charset=&quot;utf-8&quot;&gt;&lt;span data-sheets-userformat=&quot;{&amp;quot;2&amp;quot;:513,&amp;quot;3&amp;quot;:{&amp;quot;1&amp;quot;:0},&amp;quot;12&amp;quot;:0}&quot; data-sheets-value=&quot;{&amp;quot;1&amp;quot;:2,&amp;quot;2&amp;quot;:&amp;quot;Employee Last Name&amp;quot;}&quot; style=&quot;font-size:10pt;font-family:Arial;font-style:normal;&quot;&gt;Employee Last Name&lt;/span&gt;" style="ellipse;whiteSpace=wrap;html=1;" vertex="1" parent="1">
          <mxGeometry x="560" y="450" width="110" height="50" as="geometry" />
        </mxCell>
        <mxCell id="FhZOoO67xV3kqyt6doWe-8" value="&lt;meta charset=&quot;utf-8&quot;&gt;&lt;span data-sheets-userformat=&quot;{&amp;quot;2&amp;quot;:513,&amp;quot;3&amp;quot;:{&amp;quot;1&amp;quot;:0},&amp;quot;12&amp;quot;:0}&quot; data-sheets-value=&quot;{&amp;quot;1&amp;quot;:2,&amp;quot;2&amp;quot;:&amp;quot;Mobileno&amp;quot;}&quot; style=&quot;font-size:10pt;font-family:Arial;font-style:normal;&quot;&gt;Mobileno&lt;/span&gt;" style="ellipse;whiteSpace=wrap;html=1;" vertex="1" parent="1">
          <mxGeometry x="650" y="410" width="110" height="50" as="geometry" />
        </mxCell>
        <mxCell id="FhZOoO67xV3kqyt6doWe-9" value="&lt;meta charset=&quot;utf-8&quot;&gt;&lt;span data-sheets-userformat=&quot;{&amp;quot;2&amp;quot;:513,&amp;quot;3&amp;quot;:{&amp;quot;1&amp;quot;:0},&amp;quot;12&amp;quot;:0}&quot; data-sheets-value=&quot;{&amp;quot;1&amp;quot;:2,&amp;quot;2&amp;quot;:&amp;quot;Email id&amp;quot;}&quot; style=&quot;font-size:10pt;font-family:Arial;font-style:normal;&quot;&gt;Email id&lt;/span&gt;" style="ellipse;whiteSpace=wrap;html=1;" vertex="1" parent="1">
          <mxGeometry x="740" y="360" width="110" height="50" as="geometry" />
        </mxCell>
        <mxCell id="FhZOoO67xV3kqyt6doWe-10" value="&lt;meta charset=&quot;utf-8&quot;&gt;&lt;span data-sheets-userformat=&quot;{&amp;quot;2&amp;quot;:513,&amp;quot;3&amp;quot;:{&amp;quot;1&amp;quot;:0},&amp;quot;12&amp;quot;:0}&quot; data-sheets-value=&quot;{&amp;quot;1&amp;quot;:2,&amp;quot;2&amp;quot;:&amp;quot;Department name&amp;quot;}&quot; style=&quot;font-size:10pt;font-family:Arial;font-style:normal;&quot;&gt;Department name&lt;/span&gt;" style="ellipse;whiteSpace=wrap;html=1;" vertex="1" parent="1">
          <mxGeometry x="850" y="340" width="110" height="50" as="geometry" />
        </mxCell>
        <mxCell id="FhZOoO67xV3kqyt6doWe-11" value="&lt;meta charset=&quot;utf-8&quot;&gt;&lt;span data-sheets-userformat=&quot;{&amp;quot;2&amp;quot;:513,&amp;quot;3&amp;quot;:{&amp;quot;1&amp;quot;:0},&amp;quot;12&amp;quot;:0}&quot; data-sheets-value=&quot;{&amp;quot;1&amp;quot;:2,&amp;quot;2&amp;quot;:&amp;quot;Last Login&amp;quot;}&quot; style=&quot;font-size:10pt;font-family:Arial;font-style:normal;&quot;&gt;Last Login&lt;/span&gt;" style="ellipse;whiteSpace=wrap;html=1;" vertex="1" parent="1">
          <mxGeometry x="970" y="360" width="110" height="50" as="geometry" />
        </mxCell>
        <mxCell id="FhZOoO67xV3kqyt6doWe-12" value="&lt;meta charset=&quot;utf-8&quot;&gt;&lt;span data-sheets-userformat=&quot;{&amp;quot;2&amp;quot;:513,&amp;quot;3&amp;quot;:{&amp;quot;1&amp;quot;:0},&amp;quot;12&amp;quot;:0}&quot; data-sheets-value=&quot;{&amp;quot;1&amp;quot;:2,&amp;quot;2&amp;quot;:&amp;quot;Password&amp;quot;}&quot; style=&quot;font-size:10pt;font-family:Arial;font-style:normal;&quot;&gt;Password&lt;/span&gt;" style="ellipse;whiteSpace=wrap;html=1;" vertex="1" parent="1">
          <mxGeometry x="1040" y="410" width="110" height="50" as="geometry" />
        </mxCell>
        <mxCell id="FhZOoO67xV3kqyt6doWe-13" value="&lt;meta charset=&quot;utf-8&quot;&gt;&lt;span data-sheets-userformat=&quot;{&amp;quot;2&amp;quot;:513,&amp;quot;3&amp;quot;:{&amp;quot;1&amp;quot;:0},&amp;quot;12&amp;quot;:0}&quot; data-sheets-value=&quot;{&amp;quot;1&amp;quot;:2,&amp;quot;2&amp;quot;:&amp;quot;Date of Birth&amp;quot;}&quot; style=&quot;font-size:10pt;font-family:Arial;font-style:normal;&quot;&gt;Date of Birth&lt;/span&gt;" style="ellipse;whiteSpace=wrap;html=1;" vertex="1" parent="1">
          <mxGeometry x="1070" y="470" width="110" height="50" as="geometry" />
        </mxCell>
        <mxCell id="FhZOoO67xV3kqyt6doWe-14" value="&lt;meta charset=&quot;utf-8&quot;&gt;&lt;span data-sheets-userformat=&quot;{&amp;quot;2&amp;quot;:513,&amp;quot;3&amp;quot;:{&amp;quot;1&amp;quot;:0},&amp;quot;12&amp;quot;:0}&quot; data-sheets-value=&quot;{&amp;quot;1&amp;quot;:2,&amp;quot;2&amp;quot;:&amp;quot;Address&amp;quot;}&quot; style=&quot;font-size:10pt;font-family:Arial;font-style:normal;&quot;&gt;Address&lt;/span&gt;" style="ellipse;whiteSpace=wrap;html=1;" vertex="1" parent="1">
          <mxGeometry x="1100" y="530" width="110" height="50" as="geometry" />
        </mxCell>
        <mxCell id="FhZOoO67xV3kqyt6doWe-15" value="&lt;meta charset=&quot;utf-8&quot;&gt;&lt;span data-sheets-userformat=&quot;{&amp;quot;2&amp;quot;:513,&amp;quot;3&amp;quot;:{&amp;quot;1&amp;quot;:0},&amp;quot;12&amp;quot;:0}&quot; data-sheets-value=&quot;{&amp;quot;1&amp;quot;:2,&amp;quot;2&amp;quot;:&amp;quot;City &amp;quot;}&quot; style=&quot;font-size:10pt;font-family:Arial;font-style:normal;&quot;&gt;City &lt;/span&gt;" style="ellipse;whiteSpace=wrap;html=1;" vertex="1" parent="1">
          <mxGeometry x="1090" y="590" width="110" height="50" as="geometry" />
        </mxCell>
        <mxCell id="FhZOoO67xV3kqyt6doWe-16" value="&lt;meta charset=&quot;utf-8&quot;&gt;&lt;span data-sheets-userformat=&quot;{&amp;quot;2&amp;quot;:513,&amp;quot;3&amp;quot;:{&amp;quot;1&amp;quot;:0},&amp;quot;12&amp;quot;:0}&quot; data-sheets-value=&quot;{&amp;quot;1&amp;quot;:2,&amp;quot;2&amp;quot;:&amp;quot;State&amp;quot;}&quot; style=&quot;font-size:10pt;font-family:Arial;font-style:normal;&quot;&gt;State&lt;/span&gt;" style="ellipse;whiteSpace=wrap;html=1;" vertex="1" parent="1">
          <mxGeometry x="1090" y="650" width="110" height="50" as="geometry" />
        </mxCell>
        <mxCell id="FhZOoO67xV3kqyt6doWe-17" value="&lt;meta charset=&quot;utf-8&quot;&gt;&lt;span data-sheets-userformat=&quot;{&amp;quot;2&amp;quot;:513,&amp;quot;3&amp;quot;:{&amp;quot;1&amp;quot;:0},&amp;quot;12&amp;quot;:0}&quot; data-sheets-value=&quot;{&amp;quot;1&amp;quot;:2,&amp;quot;2&amp;quot;:&amp;quot;Pin code&amp;quot;}&quot; style=&quot;font-size:10pt;font-family:Arial;font-style:normal;&quot;&gt;Pin code&lt;/span&gt;" style="ellipse;whiteSpace=wrap;html=1;" vertex="1" parent="1">
          <mxGeometry x="1080" y="710" width="110" height="50" as="geometry" />
        </mxCell>
        <mxCell id="FhZOoO67xV3kqyt6doWe-18" value="&lt;meta charset=&quot;utf-8&quot;&gt;&lt;span data-sheets-userformat=&quot;{&amp;quot;2&amp;quot;:513,&amp;quot;3&amp;quot;:{&amp;quot;1&amp;quot;:0},&amp;quot;12&amp;quot;:0}&quot; data-sheets-value=&quot;{&amp;quot;1&amp;quot;:2,&amp;quot;2&amp;quot;:&amp;quot;Nationality&amp;quot;}&quot; style=&quot;font-size:10pt;font-family:Arial;font-style:normal;&quot;&gt;Nationality&lt;/span&gt;" style="ellipse;whiteSpace=wrap;html=1;" vertex="1" parent="1">
          <mxGeometry x="1020" y="760" width="110" height="50" as="geometry" />
        </mxCell>
        <mxCell id="FhZOoO67xV3kqyt6doWe-19" value="&lt;meta charset=&quot;utf-8&quot;&gt;&lt;span data-sheets-userformat=&quot;{&amp;quot;2&amp;quot;:513,&amp;quot;3&amp;quot;:{&amp;quot;1&amp;quot;:0},&amp;quot;12&amp;quot;:0}&quot; data-sheets-value=&quot;{&amp;quot;1&amp;quot;:2,&amp;quot;2&amp;quot;:&amp;quot;Ticket ID assigned&amp;quot;}&quot; style=&quot;font-size:10pt;font-family:Arial;font-style:normal;&quot;&gt;Ticket ID assigned&lt;/span&gt;" style="ellipse;whiteSpace=wrap;html=1;" vertex="1" parent="1">
          <mxGeometry x="920" y="800" width="110" height="50" as="geometry" />
        </mxCell>
        <mxCell id="FhZOoO67xV3kqyt6doWe-21" value="" style="endArrow=classic;html=1;rounded=0;entryX=0.5;entryY=1;entryDx=0;entryDy=0;exitX=0.451;exitY=0.02;exitDx=0;exitDy=0;exitPerimeter=0;" edge="1" parent="1" source="FhZOoO67xV3kqyt6doWe-3" target="FhZOoO67xV3kqyt6doWe-8">
          <mxGeometry width="50" height="50" relative="1" as="geometry">
            <mxPoint x="817.5" y="560" as="sourcePoint" />
            <mxPoint x="832.5" y="450" as="targetPoint" />
          </mxGeometry>
        </mxCell>
        <mxCell id="FhZOoO67xV3kqyt6doWe-22" value="" style="endArrow=classic;html=1;rounded=0;entryX=1;entryY=0.5;entryDx=0;entryDy=0;exitX=0.036;exitY=-0.02;exitDx=0;exitDy=0;exitPerimeter=0;" edge="1" parent="1" source="FhZOoO67xV3kqyt6doWe-3" target="FhZOoO67xV3kqyt6doWe-5">
          <mxGeometry width="50" height="50" relative="1" as="geometry">
            <mxPoint x="770" y="560" as="sourcePoint" />
            <mxPoint x="630" y="544.9999999999995" as="targetPoint" />
          </mxGeometry>
        </mxCell>
        <mxCell id="FhZOoO67xV3kqyt6doWe-23" value="" style="endArrow=classic;html=1;rounded=0;exitX=0.013;exitY=0.686;exitDx=0;exitDy=0;exitPerimeter=0;entryX=0.982;entryY=0.359;entryDx=0;entryDy=0;entryPerimeter=0;" edge="1" parent="1" source="FhZOoO67xV3kqyt6doWe-3" target="FhZOoO67xV3kqyt6doWe-6">
          <mxGeometry width="50" height="50" relative="1" as="geometry">
            <mxPoint x="760" y="580" as="sourcePoint" />
            <mxPoint x="620" y="610" as="targetPoint" />
          </mxGeometry>
        </mxCell>
        <mxCell id="FhZOoO67xV3kqyt6doWe-24" value="" style="endArrow=classic;html=1;rounded=0;entryX=0.632;entryY=0.996;entryDx=0;entryDy=0;exitX=0.25;exitY=0;exitDx=0;exitDy=0;entryPerimeter=0;" edge="1" parent="1" source="FhZOoO67xV3kqyt6doWe-3" target="FhZOoO67xV3kqyt6doWe-7">
          <mxGeometry width="50" height="50" relative="1" as="geometry">
            <mxPoint x="800" y="525" as="sourcePoint" />
            <mxPoint x="710" y="460" as="targetPoint" />
          </mxGeometry>
        </mxCell>
        <mxCell id="FhZOoO67xV3kqyt6doWe-25" value="" style="endArrow=classic;html=1;rounded=0;entryX=0.5;entryY=1;entryDx=0;entryDy=0;exitX=0.679;exitY=0.01;exitDx=0;exitDy=0;exitPerimeter=0;" edge="1" parent="1" source="FhZOoO67xV3kqyt6doWe-3" target="FhZOoO67xV3kqyt6doWe-9">
          <mxGeometry width="50" height="50" relative="1" as="geometry">
            <mxPoint x="850" y="560" as="sourcePoint" />
            <mxPoint x="865" y="450" as="targetPoint" />
          </mxGeometry>
        </mxCell>
        <mxCell id="FhZOoO67xV3kqyt6doWe-26" value="" style="endArrow=classic;html=1;rounded=0;entryX=0.5;entryY=1;entryDx=0;entryDy=0;exitX=0.75;exitY=0;exitDx=0;exitDy=0;" edge="1" parent="1" source="FhZOoO67xV3kqyt6doWe-3" target="FhZOoO67xV3kqyt6doWe-10">
          <mxGeometry width="50" height="50" relative="1" as="geometry">
            <mxPoint x="880" y="560" as="sourcePoint" />
            <mxPoint x="956" y="453" as="targetPoint" />
          </mxGeometry>
        </mxCell>
        <mxCell id="FhZOoO67xV3kqyt6doWe-27" value="" style="endArrow=classic;html=1;rounded=0;entryX=0;entryY=0.5;entryDx=0;entryDy=0;exitX=0.847;exitY=0.033;exitDx=0;exitDy=0;exitPerimeter=0;" edge="1" parent="1" source="FhZOoO67xV3kqyt6doWe-3" target="FhZOoO67xV3kqyt6doWe-11">
          <mxGeometry width="50" height="50" relative="1" as="geometry">
            <mxPoint x="880" y="577.5" as="sourcePoint" />
            <mxPoint x="1020" y="492.5" as="targetPoint" />
          </mxGeometry>
        </mxCell>
        <mxCell id="FhZOoO67xV3kqyt6doWe-28" value="" style="endArrow=classic;html=1;rounded=0;exitX=1;exitY=0;exitDx=0;exitDy=0;entryX=0;entryY=0.5;entryDx=0;entryDy=0;" edge="1" parent="1" source="FhZOoO67xV3kqyt6doWe-3" target="FhZOoO67xV3kqyt6doWe-12">
          <mxGeometry width="50" height="50" relative="1" as="geometry">
            <mxPoint x="880" y="600" as="sourcePoint" />
            <mxPoint x="1040" y="557.5" as="targetPoint" />
          </mxGeometry>
        </mxCell>
        <mxCell id="FhZOoO67xV3kqyt6doWe-29" value="" style="endArrow=classic;html=1;rounded=0;entryX=0;entryY=0.5;entryDx=0;entryDy=0;exitX=1;exitY=0.5;exitDx=0;exitDy=0;" edge="1" parent="1" source="FhZOoO67xV3kqyt6doWe-3" target="FhZOoO67xV3kqyt6doWe-13">
          <mxGeometry width="50" height="50" relative="1" as="geometry">
            <mxPoint x="860" y="600" as="sourcePoint" />
            <mxPoint x="1020" y="557.5" as="targetPoint" />
          </mxGeometry>
        </mxCell>
        <mxCell id="FhZOoO67xV3kqyt6doWe-30" value="" style="endArrow=classic;html=1;rounded=0;exitX=1;exitY=0.75;exitDx=0;exitDy=0;entryX=0;entryY=0.5;entryDx=0;entryDy=0;" edge="1" parent="1" source="FhZOoO67xV3kqyt6doWe-3" target="FhZOoO67xV3kqyt6doWe-14">
          <mxGeometry width="50" height="50" relative="1" as="geometry">
            <mxPoint x="840" y="601.25" as="sourcePoint" />
            <mxPoint x="1000" y="558.75" as="targetPoint" />
          </mxGeometry>
        </mxCell>
        <mxCell id="FhZOoO67xV3kqyt6doWe-31" value="" style="endArrow=classic;html=1;rounded=0;exitX=1;exitY=1;exitDx=0;exitDy=0;entryX=0;entryY=0.5;entryDx=0;entryDy=0;" edge="1" parent="1" source="FhZOoO67xV3kqyt6doWe-3" target="FhZOoO67xV3kqyt6doWe-15">
          <mxGeometry width="50" height="50" relative="1" as="geometry">
            <mxPoint x="912.1700000000004" y="605" as="sourcePoint" />
            <mxPoint x="1090" y="620" as="targetPoint" />
          </mxGeometry>
        </mxCell>
        <mxCell id="FhZOoO67xV3kqyt6doWe-32" value="" style="endArrow=classic;html=1;rounded=0;entryX=0.5;entryY=0;entryDx=0;entryDy=0;exitX=0.5;exitY=1;exitDx=0;exitDy=0;" edge="1" parent="1" source="FhZOoO67xV3kqyt6doWe-3" target="FhZOoO67xV3kqyt6doWe-18">
          <mxGeometry width="50" height="50" relative="1" as="geometry">
            <mxPoint x="795" y="600" as="sourcePoint" />
            <mxPoint x="760" y="800" as="targetPoint" />
          </mxGeometry>
        </mxCell>
        <mxCell id="FhZOoO67xV3kqyt6doWe-34" value="" style="endArrow=classic;html=1;rounded=0;entryX=0.5;entryY=0;entryDx=0;entryDy=0;exitX=0.883;exitY=1.025;exitDx=0;exitDy=0;exitPerimeter=0;" edge="1" parent="1" source="FhZOoO67xV3kqyt6doWe-3" target="FhZOoO67xV3kqyt6doWe-16">
          <mxGeometry width="50" height="50" relative="1" as="geometry">
            <mxPoint x="830" y="610" as="sourcePoint" />
            <mxPoint x="875" y="768" as="targetPoint" />
          </mxGeometry>
        </mxCell>
        <mxCell id="FhZOoO67xV3kqyt6doWe-35" value="" style="endArrow=classic;html=1;rounded=0;entryX=0.109;entryY=0.133;entryDx=0;entryDy=0;exitX=0.75;exitY=1;exitDx=0;exitDy=0;entryPerimeter=0;" edge="1" parent="1" source="FhZOoO67xV3kqyt6doWe-3" target="FhZOoO67xV3kqyt6doWe-17">
          <mxGeometry width="50" height="50" relative="1" as="geometry">
            <mxPoint x="820" y="600" as="sourcePoint" />
            <mxPoint x="785" y="800" as="targetPoint" />
          </mxGeometry>
        </mxCell>
        <mxCell id="FhZOoO67xV3kqyt6doWe-36" value="" style="endArrow=classic;html=1;rounded=0;entryX=0.5;entryY=0;entryDx=0;entryDy=0;exitX=0.356;exitY=1.042;exitDx=0;exitDy=0;exitPerimeter=0;" edge="1" parent="1" source="FhZOoO67xV3kqyt6doWe-3" target="FhZOoO67xV3kqyt6doWe-19">
          <mxGeometry width="50" height="50" relative="1" as="geometry">
            <mxPoint x="760" y="595" as="sourcePoint" />
            <mxPoint x="630" y="775" as="targetPoint" />
          </mxGeometry>
        </mxCell>
        <mxCell id="FhZOoO67xV3kqyt6doWe-99" value="&lt;meta charset=&quot;utf-8&quot;&gt;&lt;span data-sheets-userformat=&quot;{&amp;quot;2&amp;quot;:20608,&amp;quot;10&amp;quot;:2,&amp;quot;15&amp;quot;:&amp;quot;Arial&amp;quot;,&amp;quot;17&amp;quot;:1}&quot; data-sheets-value=&quot;{&amp;quot;1&amp;quot;:2,&amp;quot;2&amp;quot;:&amp;quot;Account Transactions&amp;quot;}&quot; style=&quot;font-size:10pt;font-family:Arial;font-weight:bold;font-style:normal;&quot;&gt;Account Transactions&lt;/span&gt;" style="rounded=0;whiteSpace=wrap;html=1;" vertex="1" parent="1">
          <mxGeometry x="-290" y="-530" width="120" height="40" as="geometry" />
        </mxCell>
        <mxCell id="FhZOoO67xV3kqyt6doWe-100" value="&lt;meta charset=&quot;utf-8&quot;&gt;&lt;span data-sheets-userformat=&quot;{&amp;quot;2&amp;quot;:4224,&amp;quot;10&amp;quot;:2,&amp;quot;15&amp;quot;:&amp;quot;Arial&amp;quot;}&quot; data-sheets-value=&quot;{&amp;quot;1&amp;quot;:2,&amp;quot;2&amp;quot;:&amp;quot;Account Type&amp;quot;}&quot; style=&quot;font-size:10pt;font-family:Arial;font-style:normal;&quot;&gt;Account Type&lt;/span&gt;" style="ellipse;whiteSpace=wrap;html=1;" vertex="1" parent="1">
          <mxGeometry x="-480" y="-620" width="110" height="50" as="geometry" />
        </mxCell>
        <mxCell id="FhZOoO67xV3kqyt6doWe-101" value="&lt;meta charset=&quot;utf-8&quot;&gt;&lt;span data-sheets-userformat=&quot;{&amp;quot;2&amp;quot;:4225,&amp;quot;3&amp;quot;:{&amp;quot;1&amp;quot;:0},&amp;quot;10&amp;quot;:2,&amp;quot;15&amp;quot;:&amp;quot;Arial&amp;quot;}&quot; data-sheets-value=&quot;{&amp;quot;1&amp;quot;:2,&amp;quot;2&amp;quot;:&amp;quot;Account number&amp;quot;}&quot; style=&quot;font-size:10pt;font-family:Arial;font-style:normal;&quot;&gt;Account number&lt;/span&gt;" style="ellipse;whiteSpace=wrap;html=1;" vertex="1" parent="1">
          <mxGeometry x="-500" y="-545" width="110" height="50" as="geometry" />
        </mxCell>
        <mxCell id="FhZOoO67xV3kqyt6doWe-102" value="&lt;meta charset=&quot;utf-8&quot;&gt;&lt;span data-sheets-userformat=&quot;{&amp;quot;2&amp;quot;:4224,&amp;quot;10&amp;quot;:2,&amp;quot;15&amp;quot;:&amp;quot;Arial&amp;quot;}&quot; data-sheets-value=&quot;{&amp;quot;1&amp;quot;:2,&amp;quot;2&amp;quot;:&amp;quot;Transaction ID&amp;quot;}&quot; style=&quot;font-size: 10pt; font-family: Arial;&quot;&gt;Transaction ID&lt;/span&gt;" style="ellipse;whiteSpace=wrap;html=1;fontStyle=5" vertex="1" parent="1">
          <mxGeometry x="-400" y="-680" width="110" height="50" as="geometry" />
        </mxCell>
        <mxCell id="FhZOoO67xV3kqyt6doWe-103" value="&lt;meta charset=&quot;utf-8&quot;&gt;&lt;span data-sheets-userformat=&quot;{&amp;quot;2&amp;quot;:4224,&amp;quot;10&amp;quot;:2,&amp;quot;15&amp;quot;:&amp;quot;Arial&amp;quot;}&quot; data-sheets-value=&quot;{&amp;quot;1&amp;quot;:2,&amp;quot;2&amp;quot;:&amp;quot;Transaction Amount&amp;quot;}&quot; style=&quot;font-size:10pt;font-family:Arial;font-style:normal;&quot;&gt;Transaction Amount&lt;/span&gt;" style="ellipse;whiteSpace=wrap;html=1;" vertex="1" parent="1">
          <mxGeometry x="-270" y="-690" width="110" height="50" as="geometry" />
        </mxCell>
        <mxCell id="FhZOoO67xV3kqyt6doWe-104" value="&lt;meta charset=&quot;utf-8&quot;&gt;&lt;span data-sheets-userformat=&quot;{&amp;quot;2&amp;quot;:4224,&amp;quot;10&amp;quot;:2,&amp;quot;15&amp;quot;:&amp;quot;Arial&amp;quot;}&quot; data-sheets-value=&quot;{&amp;quot;1&amp;quot;:2,&amp;quot;2&amp;quot;:&amp;quot;Transaction Type (Cr/Db)&amp;quot;}&quot; style=&quot;font-size:10pt;font-family:Arial;font-style:normal;&quot;&gt;Transaction Type (Cr/Db)&lt;/span&gt;" style="ellipse;whiteSpace=wrap;html=1;" vertex="1" parent="1">
          <mxGeometry x="-140" y="-690" width="130" height="60" as="geometry" />
        </mxCell>
        <mxCell id="FhZOoO67xV3kqyt6doWe-105" value="&lt;meta charset=&quot;utf-8&quot;&gt;&lt;span data-sheets-userformat=&quot;{&amp;quot;2&amp;quot;:4224,&amp;quot;10&amp;quot;:2,&amp;quot;15&amp;quot;:&amp;quot;Arial&amp;quot;}&quot; data-sheets-value=&quot;{&amp;quot;1&amp;quot;:2,&amp;quot;2&amp;quot;:&amp;quot;Transaction Date&amp;quot;}&quot; style=&quot;font-size:10pt;font-family:Arial;font-style:normal;&quot;&gt;Transaction Date&lt;/span&gt;" style="ellipse;whiteSpace=wrap;html=1;" vertex="1" parent="1">
          <mxGeometry x="-30" y="-640" width="110" height="50" as="geometry" />
        </mxCell>
        <mxCell id="FhZOoO67xV3kqyt6doWe-106" value="&lt;meta charset=&quot;utf-8&quot;&gt;&lt;span data-sheets-userformat=&quot;{&amp;quot;2&amp;quot;:4224,&amp;quot;10&amp;quot;:2,&amp;quot;15&amp;quot;:&amp;quot;Arial&amp;quot;}&quot; data-sheets-value=&quot;{&amp;quot;1&amp;quot;:2,&amp;quot;2&amp;quot;:&amp;quot;Transaction Time&amp;quot;}&quot; style=&quot;font-size:10pt;font-family:Arial;font-style:normal;&quot;&gt;Transaction Time&lt;/span&gt;" style="ellipse;whiteSpace=wrap;html=1;" vertex="1" parent="1">
          <mxGeometry x="-10" y="-580" width="110" height="50" as="geometry" />
        </mxCell>
        <mxCell id="FhZOoO67xV3kqyt6doWe-107" value="&lt;meta charset=&quot;utf-8&quot;&gt;&lt;span data-sheets-userformat=&quot;{&amp;quot;2&amp;quot;:4224,&amp;quot;10&amp;quot;:2,&amp;quot;15&amp;quot;:&amp;quot;Arial&amp;quot;}&quot; data-sheets-value=&quot;{&amp;quot;1&amp;quot;:2,&amp;quot;2&amp;quot;:&amp;quot;Receipient First Name&amp;quot;}&quot; style=&quot;font-size:10pt;font-family:Arial;font-style:normal;&quot;&gt;Receipient First Name&lt;/span&gt;" style="ellipse;whiteSpace=wrap;html=1;" vertex="1" parent="1">
          <mxGeometry x="10" y="-520" width="110" height="50" as="geometry" />
        </mxCell>
        <mxCell id="FhZOoO67xV3kqyt6doWe-108" value="&lt;meta charset=&quot;utf-8&quot;&gt;&lt;span data-sheets-userformat=&quot;{&amp;quot;2&amp;quot;:4224,&amp;quot;10&amp;quot;:2,&amp;quot;15&amp;quot;:&amp;quot;Arial&amp;quot;}&quot; data-sheets-value=&quot;{&amp;quot;1&amp;quot;:2,&amp;quot;2&amp;quot;:&amp;quot;Trasnaction Comment&amp;quot;}&quot; style=&quot;font-size:10pt;font-family:Arial;font-style:normal;&quot;&gt;Trasnaction Comment&lt;/span&gt;" style="ellipse;whiteSpace=wrap;html=1;" vertex="1" parent="1">
          <mxGeometry y="-460" width="110" height="50" as="geometry" />
        </mxCell>
        <mxCell id="FhZOoO67xV3kqyt6doWe-109" value="&lt;meta charset=&quot;utf-8&quot;&gt;&lt;span data-sheets-userformat=&quot;{&amp;quot;2&amp;quot;:4224,&amp;quot;10&amp;quot;:2,&amp;quot;15&amp;quot;:&amp;quot;Arial&amp;quot;}&quot; data-sheets-value=&quot;{&amp;quot;1&amp;quot;:2,&amp;quot;2&amp;quot;:&amp;quot;Receipient Last Name&amp;quot;}&quot; style=&quot;font-size:10pt;font-family:Arial;font-style:normal;&quot;&gt;Receipient Last Name&lt;/span&gt;" style="ellipse;whiteSpace=wrap;html=1;" vertex="1" parent="1">
          <mxGeometry x="-40" y="-400" width="110" height="50" as="geometry" />
        </mxCell>
        <mxCell id="FhZOoO67xV3kqyt6doWe-110" value="&lt;meta charset=&quot;utf-8&quot;&gt;&lt;span data-sheets-userformat=&quot;{&amp;quot;2&amp;quot;:4224,&amp;quot;10&amp;quot;:2,&amp;quot;15&amp;quot;:&amp;quot;Arial&amp;quot;}&quot; data-sheets-value=&quot;{&amp;quot;1&amp;quot;:2,&amp;quot;2&amp;quot;:&amp;quot;Receipient Account Number&amp;quot;}&quot; style=&quot;font-size:10pt;font-family:Arial;font-style:normal;&quot;&gt;Receipient Account Number&lt;/span&gt;" style="ellipse;whiteSpace=wrap;html=1;" vertex="1" parent="1">
          <mxGeometry x="-110" y="-350" width="110" height="50" as="geometry" />
        </mxCell>
        <mxCell id="FhZOoO67xV3kqyt6doWe-115" value="" style="endArrow=classic;html=1;rounded=0;entryX=0.5;entryY=1;entryDx=0;entryDy=0;" edge="1" parent="1">
          <mxGeometry width="50" height="50" relative="1" as="geometry">
            <mxPoint x="-232.5" y="-530" as="sourcePoint" />
            <mxPoint x="-217.5" y="-640" as="targetPoint" />
          </mxGeometry>
        </mxCell>
        <mxCell id="FhZOoO67xV3kqyt6doWe-116" value="" style="endArrow=classic;html=1;rounded=0;entryX=1;entryY=0.5;entryDx=0;entryDy=0;" edge="1" parent="1" target="FhZOoO67xV3kqyt6doWe-100">
          <mxGeometry width="50" height="50" relative="1" as="geometry">
            <mxPoint x="-280" y="-530" as="sourcePoint" />
            <mxPoint x="-380" y="-540" as="targetPoint" />
          </mxGeometry>
        </mxCell>
        <mxCell id="FhZOoO67xV3kqyt6doWe-117" value="" style="endArrow=classic;html=1;rounded=0;entryX=1;entryY=0.5;entryDx=0;entryDy=0;" edge="1" parent="1">
          <mxGeometry width="50" height="50" relative="1" as="geometry">
            <mxPoint x="-290" y="-510" as="sourcePoint" />
            <mxPoint x="-390" y="-520" as="targetPoint" />
          </mxGeometry>
        </mxCell>
        <mxCell id="FhZOoO67xV3kqyt6doWe-118" value="" style="endArrow=classic;html=1;rounded=0;entryX=1;entryY=0.5;entryDx=0;entryDy=0;exitX=0.25;exitY=0;exitDx=0;exitDy=0;" edge="1" parent="1" source="FhZOoO67xV3kqyt6doWe-99">
          <mxGeometry width="50" height="50" relative="1" as="geometry">
            <mxPoint x="-250" y="-565" as="sourcePoint" />
            <mxPoint x="-340" y="-630" as="targetPoint" />
          </mxGeometry>
        </mxCell>
        <mxCell id="FhZOoO67xV3kqyt6doWe-119" value="" style="endArrow=classic;html=1;rounded=0;entryX=0;entryY=1;entryDx=0;entryDy=0;exitX=0.675;exitY=0.05;exitDx=0;exitDy=0;exitPerimeter=0;" edge="1" parent="1" source="FhZOoO67xV3kqyt6doWe-99" target="FhZOoO67xV3kqyt6doWe-104">
          <mxGeometry width="50" height="50" relative="1" as="geometry">
            <mxPoint x="-200" y="-530" as="sourcePoint" />
            <mxPoint x="-185" y="-640" as="targetPoint" />
          </mxGeometry>
        </mxCell>
        <mxCell id="FhZOoO67xV3kqyt6doWe-120" value="" style="endArrow=classic;html=1;rounded=0;entryX=0;entryY=0.5;entryDx=0;entryDy=0;" edge="1" parent="1" target="FhZOoO67xV3kqyt6doWe-105">
          <mxGeometry width="50" height="50" relative="1" as="geometry">
            <mxPoint x="-170" y="-530" as="sourcePoint" />
            <mxPoint x="-94" y="-637" as="targetPoint" />
          </mxGeometry>
        </mxCell>
        <mxCell id="FhZOoO67xV3kqyt6doWe-121" value="" style="endArrow=classic;html=1;rounded=0;entryX=0;entryY=0.5;entryDx=0;entryDy=0;" edge="1" parent="1" target="FhZOoO67xV3kqyt6doWe-106">
          <mxGeometry width="50" height="50" relative="1" as="geometry">
            <mxPoint x="-170" y="-512.5" as="sourcePoint" />
            <mxPoint x="-30" y="-597.5" as="targetPoint" />
          </mxGeometry>
        </mxCell>
        <mxCell id="FhZOoO67xV3kqyt6doWe-122" value="" style="endArrow=classic;html=1;rounded=0;entryX=0;entryY=0.5;entryDx=0;entryDy=0;" edge="1" parent="1" target="FhZOoO67xV3kqyt6doWe-107">
          <mxGeometry width="50" height="50" relative="1" as="geometry">
            <mxPoint x="-170" y="-490" as="sourcePoint" />
            <mxPoint x="10" y="-494" as="targetPoint" />
          </mxGeometry>
        </mxCell>
        <mxCell id="FhZOoO67xV3kqyt6doWe-123" value="" style="endArrow=classic;html=1;rounded=0;entryX=0;entryY=0.5;entryDx=0;entryDy=0;" edge="1" parent="1" target="FhZOoO67xV3kqyt6doWe-108">
          <mxGeometry width="50" height="50" relative="1" as="geometry">
            <mxPoint x="-190" y="-490" as="sourcePoint" />
            <mxPoint x="-30" y="-532.5" as="targetPoint" />
          </mxGeometry>
        </mxCell>
        <mxCell id="FhZOoO67xV3kqyt6doWe-124" value="" style="endArrow=classic;html=1;rounded=0;" edge="1" parent="1" target="FhZOoO67xV3kqyt6doWe-109">
          <mxGeometry width="50" height="50" relative="1" as="geometry">
            <mxPoint x="-210" y="-488.75" as="sourcePoint" />
            <mxPoint x="-50" y="-531.25" as="targetPoint" />
          </mxGeometry>
        </mxCell>
        <mxCell id="FhZOoO67xV3kqyt6doWe-125" value="" style="endArrow=classic;html=1;rounded=0;entryX=0;entryY=0;entryDx=0;entryDy=0;" edge="1" parent="1" target="FhZOoO67xV3kqyt6doWe-110">
          <mxGeometry width="50" height="50" relative="1" as="geometry">
            <mxPoint x="-230" y="-490" as="sourcePoint" />
            <mxPoint x="-70" y="-532.5" as="targetPoint" />
          </mxGeometry>
        </mxCell>
        <mxCell id="FhZOoO67xV3kqyt6doWe-131" value="&lt;meta charset=&quot;utf-8&quot;&gt;&lt;span data-sheets-userformat=&quot;{&amp;quot;2&amp;quot;:16897,&amp;quot;3&amp;quot;:{&amp;quot;1&amp;quot;:0},&amp;quot;12&amp;quot;:0,&amp;quot;17&amp;quot;:1}&quot; data-sheets-value=&quot;{&amp;quot;1&amp;quot;:2,&amp;quot;2&amp;quot;:&amp;quot;Ticket&amp;quot;}&quot; style=&quot;font-size:10pt;font-family:Arial;font-weight:bold;font-style:normal;&quot;&gt;Ticket&lt;/span&gt;" style="rounded=0;whiteSpace=wrap;html=1;" vertex="1" parent="1">
          <mxGeometry x="-1435" y="535" width="120" height="40" as="geometry" />
        </mxCell>
        <mxCell id="FhZOoO67xV3kqyt6doWe-132" value="&lt;meta charset=&quot;utf-8&quot;&gt;&lt;span data-sheets-userformat=&quot;{&amp;quot;2&amp;quot;:513,&amp;quot;3&amp;quot;:{&amp;quot;1&amp;quot;:0},&amp;quot;12&amp;quot;:0}&quot; data-sheets-value=&quot;{&amp;quot;1&amp;quot;:2,&amp;quot;2&amp;quot;:&amp;quot;Ticket Description&amp;quot;}&quot; style=&quot;font-size:10pt;font-family:Arial;font-style:normal;&quot;&gt;Ticket Description&lt;/span&gt;" style="ellipse;whiteSpace=wrap;html=1;" vertex="1" parent="1">
          <mxGeometry x="-1635" y="440" width="110" height="50" as="geometry" />
        </mxCell>
        <mxCell id="FhZOoO67xV3kqyt6doWe-133" value="&lt;meta charset=&quot;utf-8&quot;&gt;&lt;span data-sheets-userformat=&quot;{&amp;quot;2&amp;quot;:513,&amp;quot;3&amp;quot;:{&amp;quot;1&amp;quot;:0},&amp;quot;12&amp;quot;:0}&quot; data-sheets-value=&quot;{&amp;quot;1&amp;quot;:2,&amp;quot;2&amp;quot;:&amp;quot;Ticket ID&amp;quot;}&quot; style=&quot;font-size:10pt;font-family:Arial;font-style:normal;&quot;&gt;Ticket ID&lt;/span&gt;" style="ellipse;whiteSpace=wrap;html=1;fontStyle=5" vertex="1" parent="1">
          <mxGeometry x="-1655" y="515" width="110" height="50" as="geometry" />
        </mxCell>
        <mxCell id="FhZOoO67xV3kqyt6doWe-134" value="&lt;meta charset=&quot;utf-8&quot;&gt;&lt;span data-sheets-userformat=&quot;{&amp;quot;2&amp;quot;:513,&amp;quot;3&amp;quot;:{&amp;quot;1&amp;quot;:0},&amp;quot;12&amp;quot;:0}&quot; data-sheets-value=&quot;{&amp;quot;1&amp;quot;:2,&amp;quot;2&amp;quot;:&amp;quot;Ticket reply&amp;quot;}&quot; style=&quot;font-size:10pt;font-family:Arial;font-style:normal;&quot;&gt;Ticket reply&lt;/span&gt;" style="ellipse;whiteSpace=wrap;html=1;" vertex="1" parent="1">
          <mxGeometry x="-1555" y="380" width="110" height="50" as="geometry" />
        </mxCell>
        <mxCell id="FhZOoO67xV3kqyt6doWe-135" value="&lt;meta charset=&quot;utf-8&quot;&gt;&lt;span data-sheets-userformat=&quot;{&amp;quot;2&amp;quot;:513,&amp;quot;3&amp;quot;:{&amp;quot;1&amp;quot;:0},&amp;quot;12&amp;quot;:0}&quot; data-sheets-value=&quot;{&amp;quot;1&amp;quot;:2,&amp;quot;2&amp;quot;:&amp;quot;Ticket status&amp;quot;}&quot; style=&quot;font-size:10pt;font-family:Arial;font-style:normal;&quot;&gt;Ticket status&lt;/span&gt;" style="ellipse;whiteSpace=wrap;html=1;" vertex="1" parent="1">
          <mxGeometry x="-1425" y="370" width="110" height="50" as="geometry" />
        </mxCell>
        <mxCell id="FhZOoO67xV3kqyt6doWe-136" value="&lt;meta charset=&quot;utf-8&quot;&gt;&lt;span data-sheets-userformat=&quot;{&amp;quot;2&amp;quot;:513,&amp;quot;3&amp;quot;:{&amp;quot;1&amp;quot;:0},&amp;quot;12&amp;quot;:0}&quot; data-sheets-value=&quot;{&amp;quot;1&amp;quot;:2,&amp;quot;2&amp;quot;:&amp;quot;Ticket raise date &amp;quot;}&quot; style=&quot;font-size:10pt;font-family:Arial;font-style:normal;&quot;&gt;Ticket raise date &lt;/span&gt;" style="ellipse;whiteSpace=wrap;html=1;" vertex="1" parent="1">
          <mxGeometry x="-1295" y="380" width="110" height="50" as="geometry" />
        </mxCell>
        <mxCell id="FhZOoO67xV3kqyt6doWe-137" value="&lt;meta charset=&quot;utf-8&quot;&gt;&lt;span data-sheets-userformat=&quot;{&amp;quot;2&amp;quot;:513,&amp;quot;3&amp;quot;:{&amp;quot;1&amp;quot;:0},&amp;quot;12&amp;quot;:0}&quot; data-sheets-value=&quot;{&amp;quot;1&amp;quot;:2,&amp;quot;2&amp;quot;:&amp;quot;Ticket raise time&amp;quot;}&quot; style=&quot;font-size:10pt;font-family:Arial;font-style:normal;&quot;&gt;Ticket raise time&lt;/span&gt;" style="ellipse;whiteSpace=wrap;html=1;" vertex="1" parent="1">
          <mxGeometry x="-1185" y="420" width="110" height="50" as="geometry" />
        </mxCell>
        <mxCell id="FhZOoO67xV3kqyt6doWe-138" value="&lt;meta charset=&quot;utf-8&quot;&gt;&lt;span data-sheets-userformat=&quot;{&amp;quot;2&amp;quot;:513,&amp;quot;3&amp;quot;:{&amp;quot;1&amp;quot;:0},&amp;quot;12&amp;quot;:0}&quot; data-sheets-value=&quot;{&amp;quot;1&amp;quot;:2,&amp;quot;2&amp;quot;:&amp;quot;Ticket resolved date &amp;quot;}&quot; style=&quot;font-size:10pt;font-family:Arial;font-style:normal;&quot;&gt;Ticket resolved date &lt;/span&gt;" style="ellipse;whiteSpace=wrap;html=1;" vertex="1" parent="1">
          <mxGeometry x="-1165" y="480" width="110" height="50" as="geometry" />
        </mxCell>
        <mxCell id="FhZOoO67xV3kqyt6doWe-139" value="&lt;meta charset=&quot;utf-8&quot;&gt;&lt;span data-sheets-userformat=&quot;{&amp;quot;2&amp;quot;:513,&amp;quot;3&amp;quot;:{&amp;quot;1&amp;quot;:0},&amp;quot;12&amp;quot;:0}&quot; data-sheets-value=&quot;{&amp;quot;1&amp;quot;:2,&amp;quot;2&amp;quot;:&amp;quot;Ticket resolved time&amp;quot;}&quot; style=&quot;font-size:10pt;font-family:Arial;font-style:normal;&quot;&gt;Ticket resolved time&lt;/span&gt;" style="ellipse;whiteSpace=wrap;html=1;" vertex="1" parent="1">
          <mxGeometry x="-1700" y="595" width="110" height="50" as="geometry" />
        </mxCell>
        <mxCell id="FhZOoO67xV3kqyt6doWe-147" value="" style="endArrow=classic;html=1;rounded=0;entryX=0.406;entryY=1.026;entryDx=0;entryDy=0;entryPerimeter=0;exitX=0.428;exitY=-0.051;exitDx=0;exitDy=0;exitPerimeter=0;" edge="1" parent="1" source="FhZOoO67xV3kqyt6doWe-131" target="FhZOoO67xV3kqyt6doWe-135">
          <mxGeometry width="50" height="50" relative="1" as="geometry">
            <mxPoint x="-1387.5" y="530" as="sourcePoint" />
            <mxPoint x="-1372.5" y="420" as="targetPoint" />
          </mxGeometry>
        </mxCell>
        <mxCell id="FhZOoO67xV3kqyt6doWe-148" value="" style="endArrow=classic;html=1;rounded=0;entryX=1;entryY=0.5;entryDx=0;entryDy=0;exitX=0;exitY=0;exitDx=0;exitDy=0;" edge="1" parent="1" target="FhZOoO67xV3kqyt6doWe-132" source="FhZOoO67xV3kqyt6doWe-131">
          <mxGeometry width="50" height="50" relative="1" as="geometry">
            <mxPoint x="-1435" y="530" as="sourcePoint" />
            <mxPoint x="-1535" y="520" as="targetPoint" />
          </mxGeometry>
        </mxCell>
        <mxCell id="FhZOoO67xV3kqyt6doWe-149" value="" style="endArrow=classic;html=1;rounded=0;entryX=1;entryY=0.5;entryDx=0;entryDy=0;exitX=0;exitY=0.5;exitDx=0;exitDy=0;" edge="1" parent="1" source="FhZOoO67xV3kqyt6doWe-131" target="FhZOoO67xV3kqyt6doWe-133">
          <mxGeometry width="50" height="50" relative="1" as="geometry">
            <mxPoint x="-1445" y="550" as="sourcePoint" />
            <mxPoint x="-1545" y="540" as="targetPoint" />
          </mxGeometry>
        </mxCell>
        <mxCell id="FhZOoO67xV3kqyt6doWe-150" value="" style="endArrow=classic;html=1;rounded=0;entryX=0.665;entryY=0.989;entryDx=0;entryDy=0;exitX=0.25;exitY=0;exitDx=0;exitDy=0;entryPerimeter=0;" edge="1" parent="1" source="FhZOoO67xV3kqyt6doWe-131" target="FhZOoO67xV3kqyt6doWe-134">
          <mxGeometry width="50" height="50" relative="1" as="geometry">
            <mxPoint x="-1405" y="495" as="sourcePoint" />
            <mxPoint x="-1495" y="430" as="targetPoint" />
          </mxGeometry>
        </mxCell>
        <mxCell id="FhZOoO67xV3kqyt6doWe-151" value="" style="endArrow=classic;html=1;rounded=0;entryX=0;entryY=1;entryDx=0;entryDy=0;exitX=0.675;exitY=0.05;exitDx=0;exitDy=0;exitPerimeter=0;" edge="1" parent="1" source="FhZOoO67xV3kqyt6doWe-131" target="FhZOoO67xV3kqyt6doWe-136">
          <mxGeometry width="50" height="50" relative="1" as="geometry">
            <mxPoint x="-1355" y="530" as="sourcePoint" />
            <mxPoint x="-1340" y="420" as="targetPoint" />
          </mxGeometry>
        </mxCell>
        <mxCell id="FhZOoO67xV3kqyt6doWe-152" value="" style="endArrow=classic;html=1;rounded=0;entryX=0;entryY=0.5;entryDx=0;entryDy=0;exitX=1;exitY=0;exitDx=0;exitDy=0;" edge="1" parent="1" target="FhZOoO67xV3kqyt6doWe-137" source="FhZOoO67xV3kqyt6doWe-131">
          <mxGeometry width="50" height="50" relative="1" as="geometry">
            <mxPoint x="-1325" y="530" as="sourcePoint" />
            <mxPoint x="-1249" y="423" as="targetPoint" />
          </mxGeometry>
        </mxCell>
        <mxCell id="FhZOoO67xV3kqyt6doWe-153" value="" style="endArrow=classic;html=1;rounded=0;entryX=0;entryY=0.5;entryDx=0;entryDy=0;exitX=1;exitY=0.5;exitDx=0;exitDy=0;" edge="1" parent="1" target="FhZOoO67xV3kqyt6doWe-138" source="FhZOoO67xV3kqyt6doWe-131">
          <mxGeometry width="50" height="50" relative="1" as="geometry">
            <mxPoint x="-1325" y="547.5" as="sourcePoint" />
            <mxPoint x="-1185" y="462.5" as="targetPoint" />
          </mxGeometry>
        </mxCell>
        <mxCell id="FhZOoO67xV3kqyt6doWe-154" value="" style="endArrow=classic;html=1;rounded=0;exitX=0;exitY=1;exitDx=0;exitDy=0;entryX=1;entryY=0.5;entryDx=0;entryDy=0;" edge="1" parent="1" target="FhZOoO67xV3kqyt6doWe-139" source="FhZOoO67xV3kqyt6doWe-131">
          <mxGeometry width="50" height="50" relative="1" as="geometry">
            <mxPoint x="-1325" y="570" as="sourcePoint" />
            <mxPoint x="-1165" y="527.5" as="targetPoint" />
          </mxGeometry>
        </mxCell>
        <mxCell id="FhZOoO67xV3kqyt6doWe-205" value="&lt;meta charset=&quot;utf-8&quot;&gt;&lt;span data-sheets-userformat=&quot;{&amp;quot;2&amp;quot;:16897,&amp;quot;3&amp;quot;:{&amp;quot;1&amp;quot;:0},&amp;quot;12&amp;quot;:0,&amp;quot;17&amp;quot;:1}&quot; data-sheets-value=&quot;{&amp;quot;1&amp;quot;:2,&amp;quot;2&amp;quot;:&amp;quot;Offers&amp;quot;}&quot; style=&quot;font-size:10pt;font-family:Arial;font-weight:bold;font-style:normal;&quot;&gt;Offers&lt;/span&gt;" style="rounded=0;whiteSpace=wrap;html=1;" vertex="1" parent="1">
          <mxGeometry x="320" y="1065" width="120" height="40" as="geometry" />
        </mxCell>
        <mxCell id="FhZOoO67xV3kqyt6doWe-206" value="&lt;meta charset=&quot;utf-8&quot;&gt;&lt;span data-sheets-userformat=&quot;{&amp;quot;2&amp;quot;:513,&amp;quot;3&amp;quot;:{&amp;quot;1&amp;quot;:0},&amp;quot;12&amp;quot;:0}&quot; data-sheets-value=&quot;{&amp;quot;1&amp;quot;:2,&amp;quot;2&amp;quot;:&amp;quot;Offer source&amp;quot;}&quot; style=&quot;font-size:10pt;font-family:Arial;font-style:normal;&quot;&gt;Offer source&lt;/span&gt;" style="ellipse;whiteSpace=wrap;html=1;" vertex="1" parent="1">
          <mxGeometry x="290" y="950" width="110" height="50" as="geometry" />
        </mxCell>
        <mxCell id="FhZOoO67xV3kqyt6doWe-207" value="&lt;meta charset=&quot;utf-8&quot;&gt;&lt;span data-sheets-userformat=&quot;{&amp;quot;2&amp;quot;:513,&amp;quot;3&amp;quot;:{&amp;quot;1&amp;quot;:0},&amp;quot;12&amp;quot;:0}&quot; data-sheets-value=&quot;{&amp;quot;1&amp;quot;:2,&amp;quot;2&amp;quot;:&amp;quot;Offer ID&amp;quot;}&quot; style=&quot;font-size:10pt;font-family:Arial;font-style:normal;&quot;&gt;Offer ID&lt;/span&gt;" style="ellipse;whiteSpace=wrap;html=1;fontStyle=5" vertex="1" parent="1">
          <mxGeometry x="170" y="985" width="110" height="50" as="geometry" />
        </mxCell>
        <mxCell id="FhZOoO67xV3kqyt6doWe-208" value="&lt;meta charset=&quot;utf-8&quot;&gt;&lt;span data-sheets-userformat=&quot;{&amp;quot;2&amp;quot;:513,&amp;quot;3&amp;quot;:{&amp;quot;1&amp;quot;:0},&amp;quot;12&amp;quot;:0}&quot; data-sheets-value=&quot;{&amp;quot;1&amp;quot;:2,&amp;quot;2&amp;quot;:&amp;quot;Offer details&amp;quot;}&quot; style=&quot;font-size:10pt;font-family:Arial;font-style:normal;&quot;&gt;Offer details&lt;/span&gt;" style="ellipse;whiteSpace=wrap;html=1;" vertex="1" parent="1">
          <mxGeometry x="420" y="960" width="110" height="50" as="geometry" />
        </mxCell>
        <mxCell id="FhZOoO67xV3kqyt6doWe-209" value="&lt;meta charset=&quot;utf-8&quot;&gt;&lt;span data-sheets-userformat=&quot;{&amp;quot;2&amp;quot;:513,&amp;quot;3&amp;quot;:{&amp;quot;1&amp;quot;:0},&amp;quot;12&amp;quot;:0}&quot; data-sheets-value=&quot;{&amp;quot;1&amp;quot;:2,&amp;quot;2&amp;quot;:&amp;quot;Offer availability&amp;quot;}&quot; style=&quot;font-size:10pt;font-family:Arial;font-style:normal;&quot;&gt;Offer availability&lt;/span&gt;" style="ellipse;whiteSpace=wrap;html=1;" vertex="1" parent="1">
          <mxGeometry x="540" y="985" width="110" height="50" as="geometry" />
        </mxCell>
        <mxCell id="FhZOoO67xV3kqyt6doWe-211" value="" style="endArrow=classic;html=1;rounded=0;entryX=0.55;entryY=1;entryDx=0;entryDy=0;entryPerimeter=0;exitX=0.563;exitY=0;exitDx=0;exitDy=0;exitPerimeter=0;" edge="1" parent="1" source="FhZOoO67xV3kqyt6doWe-205" target="FhZOoO67xV3kqyt6doWe-209">
          <mxGeometry width="50" height="50" relative="1" as="geometry">
            <mxPoint x="377.5" y="1080" as="sourcePoint" />
            <mxPoint x="392.5" y="970" as="targetPoint" />
          </mxGeometry>
        </mxCell>
        <mxCell id="FhZOoO67xV3kqyt6doWe-212" value="" style="endArrow=classic;html=1;rounded=0;entryX=1;entryY=0.5;entryDx=0;entryDy=0;exitX=0.058;exitY=-0.024;exitDx=0;exitDy=0;exitPerimeter=0;" edge="1" parent="1" target="FhZOoO67xV3kqyt6doWe-206" source="FhZOoO67xV3kqyt6doWe-205">
          <mxGeometry width="50" height="50" relative="1" as="geometry">
            <mxPoint x="330" y="1080" as="sourcePoint" />
            <mxPoint x="230" y="1070" as="targetPoint" />
          </mxGeometry>
        </mxCell>
        <mxCell id="FhZOoO67xV3kqyt6doWe-213" value="" style="endArrow=classic;html=1;rounded=0;entryX=0.987;entryY=0.319;entryDx=0;entryDy=0;exitX=0;exitY=0.5;exitDx=0;exitDy=0;entryPerimeter=0;" edge="1" parent="1" source="FhZOoO67xV3kqyt6doWe-205" target="FhZOoO67xV3kqyt6doWe-207">
          <mxGeometry width="50" height="50" relative="1" as="geometry">
            <mxPoint x="320" y="1100" as="sourcePoint" />
            <mxPoint x="220" y="1090" as="targetPoint" />
          </mxGeometry>
        </mxCell>
        <mxCell id="FhZOoO67xV3kqyt6doWe-214" value="" style="endArrow=classic;html=1;rounded=0;entryX=0.635;entryY=1.032;entryDx=0;entryDy=0;exitX=0.25;exitY=0;exitDx=0;exitDy=0;entryPerimeter=0;" edge="1" parent="1" source="FhZOoO67xV3kqyt6doWe-205" target="FhZOoO67xV3kqyt6doWe-208">
          <mxGeometry width="50" height="50" relative="1" as="geometry">
            <mxPoint x="360" y="1045" as="sourcePoint" />
            <mxPoint x="270" y="980" as="targetPoint" />
          </mxGeometry>
        </mxCell>
        <mxCell id="FhZOoO67xV3kqyt6doWe-380" value="Customer" style="rounded=0;whiteSpace=wrap;html=1;strokeWidth=1;spacing=1;" vertex="1" parent="1">
          <mxGeometry x="-645" y="1105" width="120" height="60" as="geometry" />
        </mxCell>
        <mxCell id="FhZOoO67xV3kqyt6doWe-381" value="" style="endArrow=classic;html=1;rounded=0;strokeWidth=1;spacing=1;entryX=1;entryY=0.5;entryDx=0;entryDy=0;exitX=0;exitY=0.5;exitDx=0;exitDy=0;" edge="1" parent="1" source="FhZOoO67xV3kqyt6doWe-380" target="FhZOoO67xV3kqyt6doWe-382">
          <mxGeometry width="50" height="50" relative="1" as="geometry">
            <mxPoint x="-645" y="1145" as="sourcePoint" />
            <mxPoint x="-775" y="1165" as="targetPoint" />
            <Array as="points" />
          </mxGeometry>
        </mxCell>
        <mxCell id="FhZOoO67xV3kqyt6doWe-382" value="Customer_id" style="ellipse;whiteSpace=wrap;html=1;strokeWidth=1;spacing=1;fontStyle=5" vertex="1" parent="1">
          <mxGeometry x="-1300" y="1125" width="120" height="80" as="geometry" />
        </mxCell>
        <mxCell id="FhZOoO67xV3kqyt6doWe-383" value="First_Name" style="ellipse;whiteSpace=wrap;html=1;strokeWidth=1;spacing=1;" vertex="1" parent="1">
          <mxGeometry x="-1220" y="1045" width="120" height="80" as="geometry" />
        </mxCell>
        <mxCell id="FhZOoO67xV3kqyt6doWe-384" value="" style="endArrow=classic;html=1;rounded=0;exitX=0;exitY=0.25;exitDx=0;exitDy=0;strokeWidth=1;spacing=1;entryX=1;entryY=0.5;entryDx=0;entryDy=0;" edge="1" parent="1" source="FhZOoO67xV3kqyt6doWe-380" target="FhZOoO67xV3kqyt6doWe-383">
          <mxGeometry width="50" height="50" relative="1" as="geometry">
            <mxPoint x="-635" y="1155" as="sourcePoint" />
            <mxPoint x="-765" y="1175" as="targetPoint" />
            <Array as="points" />
          </mxGeometry>
        </mxCell>
        <mxCell id="FhZOoO67xV3kqyt6doWe-385" value="Last_Name" style="ellipse;whiteSpace=wrap;html=1;strokeWidth=1;spacing=1;" vertex="1" parent="1">
          <mxGeometry x="-1370" y="935" width="120" height="80" as="geometry" />
        </mxCell>
        <mxCell id="FhZOoO67xV3kqyt6doWe-386" value="Mobile_No" style="ellipse;whiteSpace=wrap;html=1;strokeWidth=1;spacing=1;" vertex="1" parent="1">
          <mxGeometry x="-1185" y="905" width="120" height="80" as="geometry" />
        </mxCell>
        <mxCell id="FhZOoO67xV3kqyt6doWe-387" value="Email_Id" style="ellipse;whiteSpace=wrap;html=1;" vertex="1" parent="1">
          <mxGeometry x="-945" y="740" width="120" height="80" as="geometry" />
        </mxCell>
        <mxCell id="FhZOoO67xV3kqyt6doWe-388" value="Last_Login" style="ellipse;whiteSpace=wrap;html=1;" vertex="1" parent="1">
          <mxGeometry x="-815" y="795" width="120" height="80" as="geometry" />
        </mxCell>
        <mxCell id="FhZOoO67xV3kqyt6doWe-389" value="Offer_Id" style="ellipse;whiteSpace=wrap;html=1;" vertex="1" parent="1">
          <mxGeometry x="-1040" y="1385" width="120" height="80" as="geometry" />
        </mxCell>
        <mxCell id="FhZOoO67xV3kqyt6doWe-390" value="Alert_Status" style="ellipse;whiteSpace=wrap;html=1;" vertex="1" parent="1">
          <mxGeometry x="-1250" y="1260" width="120" height="80" as="geometry" />
        </mxCell>
        <mxCell id="FhZOoO67xV3kqyt6doWe-391" value="Kyc_Status" style="ellipse;whiteSpace=wrap;html=1;" vertex="1" parent="1">
          <mxGeometry x="-110" y="1360" width="120" height="80" as="geometry" />
        </mxCell>
        <mxCell id="FhZOoO67xV3kqyt6doWe-392" value="Ticket_Id" style="ellipse;whiteSpace=wrap;html=1;" vertex="1" parent="1">
          <mxGeometry x="-180" y="1270" width="120" height="80" as="geometry" />
        </mxCell>
        <mxCell id="FhZOoO67xV3kqyt6doWe-393" value="FD_No" style="ellipse;whiteSpace=wrap;html=1;strokeWidth=1;spacing=1;" vertex="1" parent="1">
          <mxGeometry x="15" y="1240" width="120" height="80" as="geometry" />
        </mxCell>
        <mxCell id="FhZOoO67xV3kqyt6doWe-394" value="DOB" style="ellipse;whiteSpace=wrap;html=1;" vertex="1" parent="1">
          <mxGeometry x="-290" y="1375" width="120" height="80" as="geometry" />
        </mxCell>
        <mxCell id="FhZOoO67xV3kqyt6doWe-395" value="Account_No" style="ellipse;whiteSpace=wrap;html=1;strokeWidth=1;spacing=1;" vertex="1" parent="1">
          <mxGeometry x="-1025" y="1285" width="120" height="80" as="geometry" />
        </mxCell>
        <mxCell id="FhZOoO67xV3kqyt6doWe-396" value="Nationality" style="ellipse;whiteSpace=wrap;html=1;strokeWidth=1;spacing=1;" vertex="1" parent="1">
          <mxGeometry x="-1150" y="1180" width="120" height="80" as="geometry" />
        </mxCell>
        <mxCell id="FhZOoO67xV3kqyt6doWe-397" value="Pincode" style="ellipse;whiteSpace=wrap;html=1;" vertex="1" parent="1">
          <mxGeometry x="-805" y="1475" width="120" height="80" as="geometry" />
        </mxCell>
        <mxCell id="FhZOoO67xV3kqyt6doWe-398" value="State" style="ellipse;whiteSpace=wrap;html=1;" vertex="1" parent="1">
          <mxGeometry x="-865" y="1375" width="120" height="80" as="geometry" />
        </mxCell>
        <mxCell id="FhZOoO67xV3kqyt6doWe-399" value="City" style="ellipse;whiteSpace=wrap;html=1;strokeWidth=1;spacing=1;" vertex="1" parent="1">
          <mxGeometry x="-550" y="1475" width="120" height="80" as="geometry" />
        </mxCell>
        <mxCell id="FhZOoO67xV3kqyt6doWe-400" value="Address" style="ellipse;whiteSpace=wrap;html=1;strokeWidth=1;spacing=1;" vertex="1" parent="1">
          <mxGeometry x="-665" y="1415" width="120" height="80" as="geometry" />
        </mxCell>
        <mxCell id="FhZOoO67xV3kqyt6doWe-401" value="Addhar_No" style="ellipse;whiteSpace=wrap;html=1;" vertex="1" parent="1">
          <mxGeometry x="-485" y="1385" width="120" height="80" as="geometry" />
        </mxCell>
        <mxCell id="FhZOoO67xV3kqyt6doWe-402" value="Pan_No" style="ellipse;whiteSpace=wrap;html=1;" vertex="1" parent="1">
          <mxGeometry x="-270" y="1475" width="120" height="80" as="geometry" />
        </mxCell>
        <mxCell id="FhZOoO67xV3kqyt6doWe-403" value="Password" style="ellipse;whiteSpace=wrap;html=1;strokeWidth=1;spacing=1;" vertex="1" parent="1">
          <mxGeometry x="-80" y="1150" width="120" height="80" as="geometry" />
        </mxCell>
        <mxCell id="FhZOoO67xV3kqyt6doWe-404" value="" style="endArrow=classic;html=1;rounded=0;strokeWidth=1;spacing=1;exitX=0.834;exitY=1.019;exitDx=0;exitDy=0;exitPerimeter=0;" edge="1" parent="1" source="FhZOoO67xV3kqyt6doWe-380" target="FhZOoO67xV3kqyt6doWe-401">
          <mxGeometry width="50" height="50" relative="1" as="geometry">
            <mxPoint x="-555" y="1295" as="sourcePoint" />
            <mxPoint x="-505" y="1245" as="targetPoint" />
          </mxGeometry>
        </mxCell>
        <mxCell id="FhZOoO67xV3kqyt6doWe-405" value="" style="endArrow=classic;html=1;rounded=0;strokeWidth=1;spacing=1;entryX=0.5;entryY=0;entryDx=0;entryDy=0;exitX=0.5;exitY=1;exitDx=0;exitDy=0;" edge="1" parent="1" source="FhZOoO67xV3kqyt6doWe-380" target="FhZOoO67xV3kqyt6doWe-398">
          <mxGeometry width="50" height="50" relative="1" as="geometry">
            <mxPoint x="-555" y="1295" as="sourcePoint" />
            <mxPoint x="-505" y="1245" as="targetPoint" />
          </mxGeometry>
        </mxCell>
        <mxCell id="FhZOoO67xV3kqyt6doWe-406" value="" style="endArrow=classic;html=1;rounded=0;strokeWidth=1;spacing=1;entryX=0.006;entryY=0.291;entryDx=0;entryDy=0;entryPerimeter=0;exitX=1;exitY=0.5;exitDx=0;exitDy=0;" edge="1" parent="1" source="FhZOoO67xV3kqyt6doWe-380" target="FhZOoO67xV3kqyt6doWe-392">
          <mxGeometry width="50" height="50" relative="1" as="geometry">
            <mxPoint x="-525" y="1155" as="sourcePoint" />
            <mxPoint x="-505" y="1245" as="targetPoint" />
          </mxGeometry>
        </mxCell>
        <mxCell id="FhZOoO67xV3kqyt6doWe-407" value="" style="endArrow=classic;html=1;rounded=0;entryX=1.036;entryY=0.336;entryDx=0;entryDy=0;entryPerimeter=0;exitX=0;exitY=1;exitDx=0;exitDy=0;strokeWidth=1;spacing=1;" edge="1" parent="1" source="FhZOoO67xV3kqyt6doWe-380" target="FhZOoO67xV3kqyt6doWe-396">
          <mxGeometry width="50" height="50" relative="1" as="geometry">
            <mxPoint x="-555" y="1295" as="sourcePoint" />
            <mxPoint x="-505" y="1245" as="targetPoint" />
          </mxGeometry>
        </mxCell>
        <mxCell id="FhZOoO67xV3kqyt6doWe-408" value="" style="endArrow=classic;html=1;rounded=0;entryX=0.5;entryY=0;entryDx=0;entryDy=0;exitX=0.603;exitY=1.037;exitDx=0;exitDy=0;exitPerimeter=0;strokeWidth=1;spacing=1;" edge="1" parent="1" source="FhZOoO67xV3kqyt6doWe-380" target="FhZOoO67xV3kqyt6doWe-397">
          <mxGeometry width="50" height="50" relative="1" as="geometry">
            <mxPoint x="-555" y="1295" as="sourcePoint" />
            <mxPoint x="-505" y="1245" as="targetPoint" />
          </mxGeometry>
        </mxCell>
        <mxCell id="FhZOoO67xV3kqyt6doWe-409" value="" style="endArrow=classic;html=1;rounded=0;entryX=0.424;entryY=-0.037;entryDx=0;entryDy=0;entryPerimeter=0;exitX=0.75;exitY=1;exitDx=0;exitDy=0;strokeWidth=1;spacing=1;" edge="1" parent="1" source="FhZOoO67xV3kqyt6doWe-380" target="FhZOoO67xV3kqyt6doWe-399">
          <mxGeometry width="50" height="50" relative="1" as="geometry">
            <mxPoint x="-555" y="1185" as="sourcePoint" />
            <mxPoint x="-505" y="1245" as="targetPoint" />
          </mxGeometry>
        </mxCell>
        <mxCell id="FhZOoO67xV3kqyt6doWe-410" value="" style="endArrow=classic;html=1;rounded=0;entryX=0.013;entryY=0.359;entryDx=0;entryDy=0;entryPerimeter=0;exitX=0.901;exitY=0.996;exitDx=0;exitDy=0;exitPerimeter=0;strokeWidth=1;spacing=1;" edge="1" parent="1" source="FhZOoO67xV3kqyt6doWe-380" target="FhZOoO67xV3kqyt6doWe-402">
          <mxGeometry width="50" height="50" relative="1" as="geometry">
            <mxPoint x="-555" y="1295" as="sourcePoint" />
            <mxPoint x="-505" y="1245" as="targetPoint" />
          </mxGeometry>
        </mxCell>
        <mxCell id="FhZOoO67xV3kqyt6doWe-411" value="" style="endArrow=classic;html=1;rounded=0;entryX=0.5;entryY=1;entryDx=0;entryDy=0;exitX=1;exitY=0.25;exitDx=0;exitDy=0;strokeWidth=1;spacing=1;" edge="1" parent="1" source="FhZOoO67xV3kqyt6doWe-380" target="FhZOoO67xV3kqyt6doWe-403">
          <mxGeometry width="50" height="50" relative="1" as="geometry">
            <mxPoint x="-555" y="1295" as="sourcePoint" />
            <mxPoint x="-505" y="1245" as="targetPoint" />
          </mxGeometry>
        </mxCell>
        <mxCell id="FhZOoO67xV3kqyt6doWe-412" value="" style="endArrow=classic;html=1;rounded=0;entryX=0.692;entryY=1.02;entryDx=0;entryDy=0;entryPerimeter=0;exitX=0.681;exitY=0.022;exitDx=0;exitDy=0;strokeWidth=1;spacing=1;exitPerimeter=0;" edge="1" parent="1" source="FhZOoO67xV3kqyt6doWe-380" target="FhZOoO67xV3kqyt6doWe-388">
          <mxGeometry width="50" height="50" relative="1" as="geometry">
            <mxPoint x="-555" y="1295" as="sourcePoint" />
            <mxPoint x="-505" y="1245" as="targetPoint" />
          </mxGeometry>
        </mxCell>
        <mxCell id="FhZOoO67xV3kqyt6doWe-413" value="" style="endArrow=classic;html=1;rounded=0;entryX=0.704;entryY=1.004;entryDx=0;entryDy=0;entryPerimeter=0;exitX=0.25;exitY=0;exitDx=0;exitDy=0;strokeWidth=1;spacing=1;" edge="1" parent="1" source="FhZOoO67xV3kqyt6doWe-380" target="FhZOoO67xV3kqyt6doWe-385">
          <mxGeometry width="50" height="50" relative="1" as="geometry">
            <mxPoint x="-555" y="1295" as="sourcePoint" />
            <mxPoint x="-505" y="1245" as="targetPoint" />
          </mxGeometry>
        </mxCell>
        <mxCell id="FhZOoO67xV3kqyt6doWe-414" value="" style="endArrow=classic;html=1;rounded=0;entryX=0.5;entryY=1;entryDx=0;entryDy=0;exitX=0.385;exitY=0.022;exitDx=0;exitDy=0;strokeWidth=1;spacing=1;exitPerimeter=0;" edge="1" parent="1" source="FhZOoO67xV3kqyt6doWe-380" target="FhZOoO67xV3kqyt6doWe-386">
          <mxGeometry width="50" height="50" relative="1" as="geometry">
            <mxPoint x="-555" y="1295" as="sourcePoint" />
            <mxPoint x="-505" y="1245" as="targetPoint" />
          </mxGeometry>
        </mxCell>
        <mxCell id="FhZOoO67xV3kqyt6doWe-415" value="" style="endArrow=classic;html=1;rounded=0;exitX=0.564;exitY=0.009;exitDx=0;exitDy=0;entryX=0.5;entryY=1;entryDx=0;entryDy=0;exitPerimeter=0;strokeWidth=1;spacing=1;" edge="1" parent="1" source="FhZOoO67xV3kqyt6doWe-380" target="FhZOoO67xV3kqyt6doWe-387">
          <mxGeometry width="50" height="50" relative="1" as="geometry">
            <mxPoint x="-555" y="1295" as="sourcePoint" />
            <mxPoint x="-462" y="1070" as="targetPoint" />
          </mxGeometry>
        </mxCell>
        <mxCell id="FhZOoO67xV3kqyt6doWe-416" value="" style="endArrow=classic;html=1;rounded=0;entryX=0.5;entryY=0;entryDx=0;entryDy=0;exitX=0.638;exitY=0.999;exitDx=0;exitDy=0;exitPerimeter=0;strokeWidth=1;spacing=1;" edge="1" parent="1" source="FhZOoO67xV3kqyt6doWe-380" target="FhZOoO67xV3kqyt6doWe-400">
          <mxGeometry width="50" height="50" relative="1" as="geometry">
            <mxPoint x="-555" y="1295" as="sourcePoint" />
            <mxPoint x="-515" y="1295" as="targetPoint" />
          </mxGeometry>
        </mxCell>
        <mxCell id="FhZOoO67xV3kqyt6doWe-417" value="" style="endArrow=classic;html=1;rounded=0;entryX=0.009;entryY=0.643;entryDx=0;entryDy=0;entryPerimeter=0;exitX=1;exitY=0.5;exitDx=0;exitDy=0;strokeWidth=1;spacing=1;" edge="1" parent="1" source="FhZOoO67xV3kqyt6doWe-380" target="FhZOoO67xV3kqyt6doWe-393">
          <mxGeometry width="50" height="50" relative="1" as="geometry">
            <mxPoint x="-555" y="1295" as="sourcePoint" />
            <mxPoint x="-505" y="1245" as="targetPoint" />
          </mxGeometry>
        </mxCell>
        <mxCell id="FhZOoO67xV3kqyt6doWe-418" value="Gender" style="ellipse;whiteSpace=wrap;html=1;strokeWidth=1;spacing=1;" vertex="1" parent="1">
          <mxGeometry x="-745" y="715" width="120" height="80" as="geometry" />
        </mxCell>
        <mxCell id="FhZOoO67xV3kqyt6doWe-419" value="" style="endArrow=classic;html=1;rounded=0;entryX=0.5;entryY=1;entryDx=0;entryDy=0;exitX=0.75;exitY=0;exitDx=0;exitDy=0;strokeWidth=1;spacing=1;" edge="1" parent="1" source="FhZOoO67xV3kqyt6doWe-380" target="FhZOoO67xV3kqyt6doWe-418">
          <mxGeometry width="50" height="50" relative="1" as="geometry">
            <mxPoint x="-515" y="1140" as="sourcePoint" />
            <mxPoint x="-205" y="975" as="targetPoint" />
          </mxGeometry>
        </mxCell>
        <mxCell id="FhZOoO67xV3kqyt6doWe-420" value="" style="endArrow=classic;html=1;rounded=0;entryX=1;entryY=0.5;entryDx=0;entryDy=0;exitX=0;exitY=1;exitDx=0;exitDy=0;strokeWidth=1;spacing=1;" edge="1" parent="1" source="FhZOoO67xV3kqyt6doWe-380" target="FhZOoO67xV3kqyt6doWe-390">
          <mxGeometry width="50" height="50" relative="1" as="geometry">
            <mxPoint x="-605" y="1185" as="sourcePoint" />
            <mxPoint x="-793" y="1407" as="targetPoint" />
          </mxGeometry>
        </mxCell>
        <mxCell id="FhZOoO67xV3kqyt6doWe-421" value="" style="endArrow=classic;html=1;rounded=0;entryX=0.978;entryY=0.28;entryDx=0;entryDy=0;exitX=0.25;exitY=1;exitDx=0;exitDy=0;strokeWidth=1;spacing=1;entryPerimeter=0;" edge="1" parent="1" source="FhZOoO67xV3kqyt6doWe-380" target="FhZOoO67xV3kqyt6doWe-395">
          <mxGeometry width="50" height="50" relative="1" as="geometry">
            <mxPoint x="-715" y="1205" as="sourcePoint" />
            <mxPoint x="-903" y="1427" as="targetPoint" />
          </mxGeometry>
        </mxCell>
        <mxCell id="FhZOoO67xV3kqyt6doWe-422" value="" style="endArrow=classic;html=1;rounded=0;strokeWidth=1;spacing=1;entryX=0.817;entryY=0.011;entryDx=0;entryDy=0;exitX=0.398;exitY=1.108;exitDx=0;exitDy=0;entryPerimeter=0;exitPerimeter=0;" edge="1" parent="1" source="FhZOoO67xV3kqyt6doWe-380" target="FhZOoO67xV3kqyt6doWe-389">
          <mxGeometry width="50" height="50" relative="1" as="geometry">
            <mxPoint x="-575" y="1185" as="sourcePoint" />
            <mxPoint x="-645" y="1515" as="targetPoint" />
          </mxGeometry>
        </mxCell>
        <mxCell id="FhZOoO67xV3kqyt6doWe-423" value="" style="endArrow=classic;html=1;rounded=0;strokeWidth=1;spacing=1;entryX=0;entryY=0.5;entryDx=0;entryDy=0;exitX=1;exitY=0.75;exitDx=0;exitDy=0;" edge="1" parent="1" source="FhZOoO67xV3kqyt6doWe-380" target="FhZOoO67xV3kqyt6doWe-391">
          <mxGeometry width="50" height="50" relative="1" as="geometry">
            <mxPoint x="-605" y="1155" as="sourcePoint" />
            <mxPoint x="-34" y="1118" as="targetPoint" />
          </mxGeometry>
        </mxCell>
        <mxCell id="FhZOoO67xV3kqyt6doWe-424" value="" style="endArrow=classic;html=1;rounded=0;strokeWidth=1;spacing=1;entryX=0;entryY=0.5;entryDx=0;entryDy=0;exitX=1;exitY=1;exitDx=0;exitDy=0;" edge="1" parent="1" source="FhZOoO67xV3kqyt6doWe-380" target="FhZOoO67xV3kqyt6doWe-394">
          <mxGeometry width="50" height="50" relative="1" as="geometry">
            <mxPoint x="-605" y="1170" as="sourcePoint" />
            <mxPoint x="-15" y="1215" as="targetPoint" />
          </mxGeometry>
        </mxCell>
        <mxCell id="FhZOoO67xV3kqyt6doWe-425" value="BANK" style="rounded=0;whiteSpace=wrap;html=1;fontSize=21;" vertex="1" parent="1">
          <mxGeometry x="-145" y="810" width="120" height="60" as="geometry" />
        </mxCell>
        <mxCell id="FhZOoO67xV3kqyt6doWe-426" value="HAS" style="rhombus;whiteSpace=wrap;html=1;" vertex="1" parent="1">
          <mxGeometry x="-300" y="800" width="110" height="80" as="geometry" />
        </mxCell>
        <mxCell id="FhZOoO67xV3kqyt6doWe-427" value="HAS" style="rhombus;whiteSpace=wrap;html=1;" vertex="1" parent="1">
          <mxGeometry x="30" y="795" width="80" height="80" as="geometry" />
        </mxCell>
        <mxCell id="FhZOoO67xV3kqyt6doWe-429" value="" style="endArrow=none;html=1;rounded=0;exitX=1;exitY=0.5;exitDx=0;exitDy=0;entryX=0;entryY=0.5;entryDx=0;entryDy=0;" edge="1" parent="1" source="FhZOoO67xV3kqyt6doWe-426" target="FhZOoO67xV3kqyt6doWe-425">
          <mxGeometry width="50" height="50" relative="1" as="geometry">
            <mxPoint x="-160" y="980" as="sourcePoint" />
            <mxPoint x="-110" y="930" as="targetPoint" />
            <Array as="points" />
          </mxGeometry>
        </mxCell>
        <mxCell id="FhZOoO67xV3kqyt6doWe-430" value="" style="endArrow=none;html=1;rounded=0;exitX=1.004;exitY=0.452;exitDx=0;exitDy=0;entryX=0;entryY=0.5;entryDx=0;entryDy=0;exitPerimeter=0;" edge="1" parent="1" source="FhZOoO67xV3kqyt6doWe-425" target="FhZOoO67xV3kqyt6doWe-427">
          <mxGeometry width="50" height="50" relative="1" as="geometry">
            <mxPoint x="-30" y="838.33" as="sourcePoint" />
            <mxPoint x="50" y="838.33" as="targetPoint" />
            <Array as="points" />
          </mxGeometry>
        </mxCell>
        <mxCell id="FhZOoO67xV3kqyt6doWe-432" value="" style="endArrow=none;html=1;rounded=0;entryX=0;entryY=0.5;entryDx=0;entryDy=0;exitX=1;exitY=0;exitDx=0;exitDy=0;" edge="1" parent="1" source="FhZOoO67xV3kqyt6doWe-380" target="FhZOoO67xV3kqyt6doWe-426">
          <mxGeometry width="50" height="50" relative="1" as="geometry">
            <mxPoint x="-465" y="975" as="sourcePoint" />
            <mxPoint x="-415" y="925" as="targetPoint" />
          </mxGeometry>
        </mxCell>
        <mxCell id="FhZOoO67xV3kqyt6doWe-433" value="" style="endArrow=none;html=1;rounded=0;entryX=0;entryY=1;entryDx=0;entryDy=0;exitX=1;exitY=0.5;exitDx=0;exitDy=0;" edge="1" parent="1" source="FhZOoO67xV3kqyt6doWe-427" target="FhZOoO67xV3kqyt6doWe-3">
          <mxGeometry width="50" height="50" relative="1" as="geometry">
            <mxPoint x="225" y="897.5" as="sourcePoint" />
            <mxPoint x="410" y="632.5" as="targetPoint" />
          </mxGeometry>
        </mxCell>
        <mxCell id="FhZOoO67xV3kqyt6doWe-459" value="&lt;meta charset=&quot;utf-8&quot;&gt;&lt;span data-sheets-userformat=&quot;{&amp;quot;2&amp;quot;:16897,&amp;quot;3&amp;quot;:{&amp;quot;1&amp;quot;:0},&amp;quot;12&amp;quot;:0,&amp;quot;17&amp;quot;:1}&quot; data-sheets-value=&quot;{&amp;quot;1&amp;quot;:2,&amp;quot;2&amp;quot;:&amp;quot;Customer_Saving_Accounts&amp;quot;}&quot; style=&quot;font-size:10pt;font-family:Arial;font-weight:bold;font-style:normal;&quot;&gt;Customer_Saving_Accounts&lt;/span&gt;" style="rounded=0;whiteSpace=wrap;html=1;" vertex="1" parent="1">
          <mxGeometry x="-20" y="85" width="210" height="40" as="geometry" />
        </mxCell>
        <mxCell id="FhZOoO67xV3kqyt6doWe-460" value="&lt;meta charset=&quot;utf-8&quot;&gt;&lt;span data-sheets-userformat=&quot;{&amp;quot;2&amp;quot;:513,&amp;quot;3&amp;quot;:{&amp;quot;1&amp;quot;:0},&amp;quot;12&amp;quot;:0}&quot; data-sheets-value=&quot;{&amp;quot;1&amp;quot;:2,&amp;quot;2&amp;quot;:&amp;quot;Account number&amp;quot;}&quot; style=&quot;font-size:10pt;font-family:Arial;font-style:normal;&quot;&gt;Account number&lt;/span&gt;" style="ellipse;whiteSpace=wrap;html=1;fontStyle=5" vertex="1" parent="1">
          <mxGeometry x="-210" y="-20" width="110" height="50" as="geometry" />
        </mxCell>
        <mxCell id="FhZOoO67xV3kqyt6doWe-461" value="&lt;meta charset=&quot;utf-8&quot;&gt;&lt;span data-sheets-userformat=&quot;{&amp;quot;2&amp;quot;:513,&amp;quot;3&amp;quot;:{&amp;quot;1&amp;quot;:0},&amp;quot;12&amp;quot;:0}&quot; data-sheets-value=&quot;{&amp;quot;1&amp;quot;:2,&amp;quot;2&amp;quot;:&amp;quot;Account Type&amp;quot;}&quot; style=&quot;font-size:10pt;font-family:Arial;font-style:normal;&quot;&gt;Account Type&lt;/span&gt;" style="ellipse;whiteSpace=wrap;html=1;" vertex="1" parent="1">
          <mxGeometry x="-230" y="55" width="110" height="50" as="geometry" />
        </mxCell>
        <mxCell id="FhZOoO67xV3kqyt6doWe-462" value="&lt;meta charset=&quot;utf-8&quot;&gt;&lt;span data-sheets-userformat=&quot;{&amp;quot;2&amp;quot;:513,&amp;quot;3&amp;quot;:{&amp;quot;1&amp;quot;:0},&amp;quot;12&amp;quot;:0}&quot; data-sheets-value=&quot;{&amp;quot;1&amp;quot;:2,&amp;quot;2&amp;quot;:&amp;quot;Customer ID&amp;quot;}&quot; style=&quot;font-size:10pt;font-family:Arial;font-style:normal;&quot;&gt;Customer ID&lt;/span&gt;" style="ellipse;whiteSpace=wrap;html=1;" vertex="1" parent="1">
          <mxGeometry x="-220" y="140" width="110" height="50" as="geometry" />
        </mxCell>
        <mxCell id="FhZOoO67xV3kqyt6doWe-463" value="&lt;meta charset=&quot;utf-8&quot;&gt;&lt;span data-sheets-userformat=&quot;{&amp;quot;2&amp;quot;:513,&amp;quot;3&amp;quot;:{&amp;quot;1&amp;quot;:0},&amp;quot;12&amp;quot;:0}&quot; data-sheets-value=&quot;{&amp;quot;1&amp;quot;:2,&amp;quot;2&amp;quot;:&amp;quot;Balance&amp;quot;}&quot; style=&quot;font-size:10pt;font-family:Arial;font-style:normal;&quot;&gt;Balance&lt;/span&gt;" style="ellipse;whiteSpace=wrap;html=1;" vertex="1" parent="1">
          <mxGeometry y="-90" width="110" height="50" as="geometry" />
        </mxCell>
        <mxCell id="FhZOoO67xV3kqyt6doWe-464" value="&lt;meta charset=&quot;utf-8&quot;&gt;&lt;span data-sheets-userformat=&quot;{&amp;quot;2&amp;quot;:513,&amp;quot;3&amp;quot;:{&amp;quot;1&amp;quot;:0},&amp;quot;12&amp;quot;:0}&quot; data-sheets-value=&quot;{&amp;quot;1&amp;quot;:2,&amp;quot;2&amp;quot;:&amp;quot;Rate of Interest&amp;quot;}&quot; style=&quot;font-size:10pt;font-family:Arial;font-style:normal;&quot;&gt;Rate of Interest&lt;/span&gt;" style="ellipse;whiteSpace=wrap;html=1;" vertex="1" parent="1">
          <mxGeometry x="120" y="-175" width="110" height="50" as="geometry" />
        </mxCell>
        <mxCell id="FhZOoO67xV3kqyt6doWe-465" value="&lt;meta charset=&quot;utf-8&quot;&gt;&lt;span data-sheets-userformat=&quot;{&amp;quot;2&amp;quot;:513,&amp;quot;3&amp;quot;:{&amp;quot;1&amp;quot;:0},&amp;quot;12&amp;quot;:0}&quot; data-sheets-value=&quot;{&amp;quot;1&amp;quot;:2,&amp;quot;2&amp;quot;:&amp;quot;Nominee First Name&amp;quot;}&quot; style=&quot;font-size:10pt;font-family:Arial;font-style:normal;&quot;&gt;Nominee First Name&lt;/span&gt;" style="ellipse;whiteSpace=wrap;html=1;" vertex="1" parent="1">
          <mxGeometry x="180" y="-90" width="110" height="50" as="geometry" />
        </mxCell>
        <mxCell id="FhZOoO67xV3kqyt6doWe-466" value="&lt;meta charset=&quot;utf-8&quot;&gt;&lt;span data-sheets-userformat=&quot;{&amp;quot;2&amp;quot;:513,&amp;quot;3&amp;quot;:{&amp;quot;1&amp;quot;:0},&amp;quot;12&amp;quot;:0}&quot; data-sheets-value=&quot;{&amp;quot;1&amp;quot;:2,&amp;quot;2&amp;quot;:&amp;quot;Nominee Last Name&amp;quot;}&quot; style=&quot;font-size:10pt;font-family:Arial;font-style:normal;&quot;&gt;Nominee Last Name&lt;/span&gt;" style="ellipse;whiteSpace=wrap;html=1;" vertex="1" parent="1">
          <mxGeometry x="350" y="60" width="110" height="50" as="geometry" />
        </mxCell>
        <mxCell id="FhZOoO67xV3kqyt6doWe-467" value="&lt;meta charset=&quot;utf-8&quot;&gt;&lt;span data-sheets-userformat=&quot;{&amp;quot;2&amp;quot;:513,&amp;quot;3&amp;quot;:{&amp;quot;1&amp;quot;:0},&amp;quot;12&amp;quot;:0}&quot; data-sheets-value=&quot;{&amp;quot;1&amp;quot;:2,&amp;quot;2&amp;quot;:&amp;quot;Nominee Date of Birth&amp;quot;}&quot; style=&quot;font-size:10pt;font-family:Arial;font-style:normal;&quot;&gt;Nominee Date of Birth&lt;/span&gt;" style="ellipse;whiteSpace=wrap;html=1;" vertex="1" parent="1">
          <mxGeometry x="340" y="120" width="110" height="50" as="geometry" />
        </mxCell>
        <mxCell id="FhZOoO67xV3kqyt6doWe-468" value="&lt;meta charset=&quot;utf-8&quot;&gt;&lt;span data-sheets-userformat=&quot;{&amp;quot;2&amp;quot;:513,&amp;quot;3&amp;quot;:{&amp;quot;1&amp;quot;:0},&amp;quot;12&amp;quot;:0}&quot; data-sheets-value=&quot;{&amp;quot;1&amp;quot;:2,&amp;quot;2&amp;quot;:&amp;quot;Nominee PAN Number&amp;quot;}&quot; style=&quot;font-size:10pt;font-family:Arial;font-style:normal;&quot;&gt;Nominee PAN Number&lt;/span&gt;" style="ellipse;whiteSpace=wrap;html=1;" vertex="1" parent="1">
          <mxGeometry x="310" y="180" width="110" height="50" as="geometry" />
        </mxCell>
        <mxCell id="FhZOoO67xV3kqyt6doWe-469" value="&lt;meta charset=&quot;utf-8&quot;&gt;&lt;span data-sheets-userformat=&quot;{&amp;quot;2&amp;quot;:513,&amp;quot;3&amp;quot;:{&amp;quot;1&amp;quot;:0},&amp;quot;12&amp;quot;:0}&quot; data-sheets-value=&quot;{&amp;quot;1&amp;quot;:2,&amp;quot;2&amp;quot;:&amp;quot;Account Opening Date&amp;quot;}&quot; style=&quot;font-size:10pt;font-family:Arial;font-style:normal;&quot;&gt;Account Opening Date&lt;/span&gt;" style="ellipse;whiteSpace=wrap;html=1;" vertex="1" parent="1">
          <mxGeometry x="210" y="230" width="110" height="50" as="geometry" />
        </mxCell>
        <mxCell id="FhZOoO67xV3kqyt6doWe-470" value="&lt;meta charset=&quot;utf-8&quot;&gt;&lt;span data-sheets-userformat=&quot;{&amp;quot;2&amp;quot;:513,&amp;quot;3&amp;quot;:{&amp;quot;1&amp;quot;:0},&amp;quot;12&amp;quot;:0}&quot; data-sheets-value=&quot;{&amp;quot;1&amp;quot;:2,&amp;quot;2&amp;quot;:&amp;quot;Transaction ID&amp;quot;}&quot; style=&quot;font-size:10pt;font-family:Arial;font-style:normal;&quot;&gt;Transaction ID&lt;/span&gt;" style="ellipse;whiteSpace=wrap;html=1;" vertex="1" parent="1">
          <mxGeometry x="130" y="280" width="110" height="50" as="geometry" />
        </mxCell>
        <mxCell id="FhZOoO67xV3kqyt6doWe-471" value="&lt;meta charset=&quot;utf-8&quot;&gt;&lt;span data-sheets-userformat=&quot;{&amp;quot;2&amp;quot;:513,&amp;quot;3&amp;quot;:{&amp;quot;1&amp;quot;:0},&amp;quot;12&amp;quot;:0}&quot; data-sheets-value=&quot;{&amp;quot;1&amp;quot;:2,&amp;quot;2&amp;quot;:&amp;quot;Benificiary ID&amp;quot;}&quot; style=&quot;font-size:10pt;font-family:Arial;font-style:normal;&quot;&gt;Benificiary ID&lt;/span&gt;" style="ellipse;whiteSpace=wrap;html=1;" vertex="1" parent="1">
          <mxGeometry x="10" y="260" width="110" height="50" as="geometry" />
        </mxCell>
        <mxCell id="FhZOoO67xV3kqyt6doWe-472" value="" style="endArrow=classic;html=1;rounded=0;entryX=0.56;entryY=1.025;entryDx=0;entryDy=0;exitX=0.5;exitY=0;exitDx=0;exitDy=0;entryPerimeter=0;" edge="1" parent="1" source="FhZOoO67xV3kqyt6doWe-459" target="FhZOoO67xV3kqyt6doWe-463">
          <mxGeometry width="50" height="50" relative="1" as="geometry">
            <mxPoint x="37.5" y="70" as="sourcePoint" />
            <mxPoint x="52.5" y="-40" as="targetPoint" />
          </mxGeometry>
        </mxCell>
        <mxCell id="FhZOoO67xV3kqyt6doWe-473" value="" style="endArrow=classic;html=1;rounded=0;entryX=1;entryY=0.5;entryDx=0;entryDy=0;exitX=0;exitY=0;exitDx=0;exitDy=0;" edge="1" parent="1" source="FhZOoO67xV3kqyt6doWe-459" target="FhZOoO67xV3kqyt6doWe-460">
          <mxGeometry width="50" height="50" relative="1" as="geometry">
            <mxPoint x="-10" y="70" as="sourcePoint" />
            <mxPoint x="-110" y="60" as="targetPoint" />
          </mxGeometry>
        </mxCell>
        <mxCell id="FhZOoO67xV3kqyt6doWe-474" value="" style="endArrow=classic;html=1;rounded=0;entryX=0.994;entryY=0.632;entryDx=0;entryDy=0;exitX=-0.008;exitY=0.657;exitDx=0;exitDy=0;exitPerimeter=0;entryPerimeter=0;" edge="1" parent="1" source="FhZOoO67xV3kqyt6doWe-459" target="FhZOoO67xV3kqyt6doWe-461">
          <mxGeometry width="50" height="50" relative="1" as="geometry">
            <mxPoint x="-20" y="90" as="sourcePoint" />
            <mxPoint x="-120" y="80" as="targetPoint" />
          </mxGeometry>
        </mxCell>
        <mxCell id="FhZOoO67xV3kqyt6doWe-475" value="" style="endArrow=classic;html=1;rounded=0;entryX=1;entryY=0.5;entryDx=0;entryDy=0;exitX=0;exitY=1;exitDx=0;exitDy=0;" edge="1" parent="1" source="FhZOoO67xV3kqyt6doWe-459" target="FhZOoO67xV3kqyt6doWe-462">
          <mxGeometry width="50" height="50" relative="1" as="geometry">
            <mxPoint x="20" y="35" as="sourcePoint" />
            <mxPoint x="-70" y="-30" as="targetPoint" />
          </mxGeometry>
        </mxCell>
        <mxCell id="FhZOoO67xV3kqyt6doWe-476" value="" style="endArrow=classic;html=1;rounded=0;entryX=0;entryY=1;entryDx=0;entryDy=0;exitX=0.75;exitY=0;exitDx=0;exitDy=0;" edge="1" parent="1" source="FhZOoO67xV3kqyt6doWe-459" target="FhZOoO67xV3kqyt6doWe-464">
          <mxGeometry width="50" height="50" relative="1" as="geometry">
            <mxPoint x="70" y="70" as="sourcePoint" />
            <mxPoint x="85" y="-40" as="targetPoint" />
          </mxGeometry>
        </mxCell>
        <mxCell id="FhZOoO67xV3kqyt6doWe-477" value="" style="endArrow=classic;html=1;rounded=0;entryX=0;entryY=0.5;entryDx=0;entryDy=0;exitX=0.887;exitY=0.043;exitDx=0;exitDy=0;exitPerimeter=0;" edge="1" parent="1" source="FhZOoO67xV3kqyt6doWe-459" target="FhZOoO67xV3kqyt6doWe-465">
          <mxGeometry width="50" height="50" relative="1" as="geometry">
            <mxPoint x="170" y="80" as="sourcePoint" />
            <mxPoint x="176" y="-37" as="targetPoint" />
          </mxGeometry>
        </mxCell>
        <mxCell id="FhZOoO67xV3kqyt6doWe-478" value="" style="endArrow=classic;html=1;rounded=0;entryX=0;entryY=0.5;entryDx=0;entryDy=0;exitX=1;exitY=0.5;exitDx=0;exitDy=0;" edge="1" parent="1" source="FhZOoO67xV3kqyt6doWe-459" target="FhZOoO67xV3kqyt6doWe-466">
          <mxGeometry width="50" height="50" relative="1" as="geometry">
            <mxPoint x="100" y="87.5" as="sourcePoint" />
            <mxPoint x="240" y="2.5" as="targetPoint" />
          </mxGeometry>
        </mxCell>
        <mxCell id="FhZOoO67xV3kqyt6doWe-479" value="" style="endArrow=classic;html=1;rounded=0;exitX=1;exitY=0.5;exitDx=0;exitDy=0;entryX=0;entryY=0.5;entryDx=0;entryDy=0;" edge="1" parent="1" source="FhZOoO67xV3kqyt6doWe-459" target="FhZOoO67xV3kqyt6doWe-467">
          <mxGeometry width="50" height="50" relative="1" as="geometry">
            <mxPoint x="100" y="100" as="sourcePoint" />
            <mxPoint x="260" y="67.5" as="targetPoint" />
          </mxGeometry>
        </mxCell>
        <mxCell id="FhZOoO67xV3kqyt6doWe-480" value="" style="endArrow=classic;html=1;rounded=0;entryX=0;entryY=0.5;entryDx=0;entryDy=0;exitX=1;exitY=1;exitDx=0;exitDy=0;" edge="1" parent="1" source="FhZOoO67xV3kqyt6doWe-459" target="FhZOoO67xV3kqyt6doWe-468">
          <mxGeometry width="50" height="50" relative="1" as="geometry">
            <mxPoint x="80" y="110" as="sourcePoint" />
            <mxPoint x="240" y="67.5" as="targetPoint" />
          </mxGeometry>
        </mxCell>
        <mxCell id="FhZOoO67xV3kqyt6doWe-481" value="" style="endArrow=classic;html=1;rounded=0;exitX=0.75;exitY=1;exitDx=0;exitDy=0;" edge="1" parent="1" source="FhZOoO67xV3kqyt6doWe-459" target="FhZOoO67xV3kqyt6doWe-469">
          <mxGeometry width="50" height="50" relative="1" as="geometry">
            <mxPoint x="60" y="111.25" as="sourcePoint" />
            <mxPoint x="220" y="68.75" as="targetPoint" />
          </mxGeometry>
        </mxCell>
        <mxCell id="FhZOoO67xV3kqyt6doWe-482" value="" style="endArrow=classic;html=1;rounded=0;entryX=0;entryY=0;entryDx=0;entryDy=0;exitX=0.565;exitY=1.04;exitDx=0;exitDy=0;exitPerimeter=0;" edge="1" parent="1" source="FhZOoO67xV3kqyt6doWe-459" target="FhZOoO67xV3kqyt6doWe-470">
          <mxGeometry width="50" height="50" relative="1" as="geometry">
            <mxPoint x="40" y="110" as="sourcePoint" />
            <mxPoint x="200" y="67.5" as="targetPoint" />
          </mxGeometry>
        </mxCell>
        <mxCell id="FhZOoO67xV3kqyt6doWe-483" value="" style="endArrow=classic;html=1;rounded=0;exitX=0.5;exitY=1;exitDx=0;exitDy=0;entryX=0.5;entryY=0;entryDx=0;entryDy=0;" edge="1" parent="1" source="FhZOoO67xV3kqyt6doWe-459" target="FhZOoO67xV3kqyt6doWe-471">
          <mxGeometry width="50" height="50" relative="1" as="geometry">
            <mxPoint x="50" y="120" as="sourcePoint" />
            <mxPoint x="95" y="280" as="targetPoint" />
          </mxGeometry>
        </mxCell>
        <mxCell id="FhZOoO67xV3kqyt6doWe-484" value="" style="endArrow=none;html=1;rounded=0;exitX=1;exitY=0.5;exitDx=0;exitDy=0;entryX=0.35;entryY=1.002;entryDx=0;entryDy=0;entryPerimeter=0;" edge="1" parent="1" source="FhZOoO67xV3kqyt6doWe-486" target="FhZOoO67xV3kqyt6doWe-459">
          <mxGeometry width="50" height="50" relative="1" as="geometry">
            <mxPoint x="-340" y="780" as="sourcePoint" />
            <mxPoint x="-290" y="730" as="targetPoint" />
          </mxGeometry>
        </mxCell>
        <mxCell id="FhZOoO67xV3kqyt6doWe-486" value="HAS" style="rhombus;whiteSpace=wrap;html=1;" vertex="1" parent="1">
          <mxGeometry x="-275" y="435" width="110" height="80" as="geometry" />
        </mxCell>
        <mxCell id="FhZOoO67xV3kqyt6doWe-487" value="" style="endArrow=none;html=1;rounded=0;exitX=0.904;exitY=0.027;exitDx=0;exitDy=0;entryX=0;entryY=0.5;entryDx=0;entryDy=0;exitPerimeter=0;" edge="1" parent="1" source="FhZOoO67xV3kqyt6doWe-380" target="FhZOoO67xV3kqyt6doWe-486">
          <mxGeometry width="50" height="50" relative="1" as="geometry">
            <mxPoint x="-485" y="830" as="sourcePoint" />
            <mxPoint x="-266" y="480" as="targetPoint" />
          </mxGeometry>
        </mxCell>
        <mxCell id="FhZOoO67xV3kqyt6doWe-488" value="" style="endArrow=none;html=1;rounded=0;exitX=0.837;exitY=0.002;exitDx=0;exitDy=0;exitPerimeter=0;entryX=1;entryY=0.5;entryDx=0;entryDy=0;" edge="1" parent="1" source="FhZOoO67xV3kqyt6doWe-380" target="FhZOoO67xV3kqyt6doWe-489">
          <mxGeometry width="50" height="50" relative="1" as="geometry">
            <mxPoint x="-527" y="1117" as="sourcePoint" />
            <mxPoint x="-590" y="480" as="targetPoint" />
          </mxGeometry>
        </mxCell>
        <mxCell id="FhZOoO67xV3kqyt6doWe-489" value="HAS" style="rhombus;whiteSpace=wrap;html=1;" vertex="1" parent="1">
          <mxGeometry x="-700" y="440" width="110" height="80" as="geometry" />
        </mxCell>
        <mxCell id="FhZOoO67xV3kqyt6doWe-491" value="" style="endArrow=none;html=1;rounded=0;exitX=0;exitY=0.5;exitDx=0;exitDy=0;entryX=0.5;entryY=1;entryDx=0;entryDy=0;" edge="1" parent="1" source="FhZOoO67xV3kqyt6doWe-489" target="FhZOoO67xV3kqyt6doWe-492">
          <mxGeometry width="50" height="50" relative="1" as="geometry">
            <mxPoint x="-855" y="765" as="sourcePoint" />
            <mxPoint x="-900" y="140" as="targetPoint" />
          </mxGeometry>
        </mxCell>
        <mxCell id="FhZOoO67xV3kqyt6doWe-492" value="&lt;meta charset=&quot;utf-8&quot;&gt;&lt;span data-sheets-userformat=&quot;{&amp;quot;2&amp;quot;:16897,&amp;quot;3&amp;quot;:{&amp;quot;1&amp;quot;:0},&amp;quot;12&amp;quot;:0,&amp;quot;17&amp;quot;:1}&quot; data-sheets-value=&quot;{&amp;quot;1&amp;quot;:2,&amp;quot;2&amp;quot;:&amp;quot;Customer_FD_Accounts &amp;quot;}&quot; style=&quot;font-size:10pt;font-family:Arial;font-weight:bold;font-style:normal;&quot;&gt;Customer_FD_Accounts &lt;/span&gt;" style="rounded=0;whiteSpace=wrap;html=1;" vertex="1" parent="1">
          <mxGeometry x="-990" y="-185" width="210" height="40" as="geometry" />
        </mxCell>
        <mxCell id="FhZOoO67xV3kqyt6doWe-493" value="&lt;span data-sheets-userformat=&quot;{&amp;quot;2&amp;quot;:513,&amp;quot;3&amp;quot;:{&amp;quot;1&amp;quot;:0},&amp;quot;12&amp;quot;:0}&quot; data-sheets-value=&quot;{&amp;quot;1&amp;quot;:2,&amp;quot;2&amp;quot;:&amp;quot;Account number&amp;quot;}&quot; style=&quot;font-size:10pt;font-family:Arial;font-style:normal;&quot;&gt;Customer ID&lt;/span&gt;" style="ellipse;whiteSpace=wrap;html=1;" vertex="1" parent="1">
          <mxGeometry x="-1230" y="-320" width="110" height="50" as="geometry" />
        </mxCell>
        <mxCell id="FhZOoO67xV3kqyt6doWe-494" value="&lt;meta charset=&quot;utf-8&quot;&gt;&lt;span data-sheets-userformat=&quot;{&amp;quot;2&amp;quot;:513,&amp;quot;3&amp;quot;:{&amp;quot;1&amp;quot;:0},&amp;quot;12&amp;quot;:0}&quot; data-sheets-value=&quot;{&amp;quot;1&amp;quot;:2,&amp;quot;2&amp;quot;:&amp;quot;Account Type&amp;quot;}&quot; style=&quot;font-size:10pt;font-family:Arial;font-style:normal;&quot;&gt;Account Type&lt;/span&gt;" style="ellipse;whiteSpace=wrap;html=1;fontStyle=5" vertex="1" parent="1">
          <mxGeometry x="-1280" y="-255" width="110" height="50" as="geometry" />
        </mxCell>
        <mxCell id="FhZOoO67xV3kqyt6doWe-495" value="&lt;meta charset=&quot;utf-8&quot;&gt;&lt;span data-sheets-userformat=&quot;{&amp;quot;2&amp;quot;:513,&amp;quot;3&amp;quot;:{&amp;quot;1&amp;quot;:0},&amp;quot;12&amp;quot;:0}&quot; data-sheets-value=&quot;{&amp;quot;1&amp;quot;:2,&amp;quot;2&amp;quot;:&amp;quot;Account Holder Last Name&amp;quot;}&quot; style=&quot;font-size:10pt;font-family:Arial;font-style:normal;&quot;&gt;Account Holder Last Name&lt;/span&gt;" style="ellipse;whiteSpace=wrap;html=1;" vertex="1" parent="1">
          <mxGeometry x="-1065" y="-470" width="110" height="50" as="geometry" />
        </mxCell>
        <mxCell id="FhZOoO67xV3kqyt6doWe-496" value="&lt;meta charset=&quot;utf-8&quot;&gt;&lt;span data-sheets-userformat=&quot;{&amp;quot;2&amp;quot;:513,&amp;quot;3&amp;quot;:{&amp;quot;1&amp;quot;:0},&amp;quot;12&amp;quot;:0}&quot; data-sheets-value=&quot;{&amp;quot;1&amp;quot;:2,&amp;quot;2&amp;quot;:&amp;quot;Principal amount&amp;quot;}&quot; style=&quot;font-size:10pt;font-family:Arial;font-style:normal;&quot;&gt;Principal amount&lt;/span&gt;" style="ellipse;whiteSpace=wrap;html=1;" vertex="1" parent="1">
          <mxGeometry x="-935" y="-500" width="110" height="50" as="geometry" />
        </mxCell>
        <mxCell id="FhZOoO67xV3kqyt6doWe-497" value="&lt;meta charset=&quot;utf-8&quot;&gt;&lt;span data-sheets-userformat=&quot;{&amp;quot;2&amp;quot;:513,&amp;quot;3&amp;quot;:{&amp;quot;1&amp;quot;:0},&amp;quot;12&amp;quot;:0}&quot; data-sheets-value=&quot;{&amp;quot;1&amp;quot;:2,&amp;quot;2&amp;quot;:&amp;quot;Rate of Interest&amp;quot;}&quot; style=&quot;font-size:10pt;font-family:Arial;font-style:normal;&quot;&gt;Rate of Interest&lt;/span&gt;" style="ellipse;whiteSpace=wrap;html=1;" vertex="1" parent="1">
          <mxGeometry x="-820" y="-440" width="110" height="50" as="geometry" />
        </mxCell>
        <mxCell id="FhZOoO67xV3kqyt6doWe-498" value="&lt;meta charset=&quot;utf-8&quot;&gt;&lt;span data-sheets-userformat=&quot;{&amp;quot;2&amp;quot;:513,&amp;quot;3&amp;quot;:{&amp;quot;1&amp;quot;:0},&amp;quot;12&amp;quot;:0}&quot; data-sheets-value=&quot;{&amp;quot;1&amp;quot;:2,&amp;quot;2&amp;quot;:&amp;quot;Time Duration&amp;quot;}&quot; style=&quot;font-size:10pt;font-family:Arial;font-style:normal;&quot;&gt;Time Duration&lt;/span&gt;" style="ellipse;whiteSpace=wrap;html=1;" vertex="1" parent="1">
          <mxGeometry x="-680" y="-245" width="110" height="50" as="geometry" />
        </mxCell>
        <mxCell id="FhZOoO67xV3kqyt6doWe-499" value="&lt;meta charset=&quot;utf-8&quot;&gt;&lt;span data-sheets-userformat=&quot;{&amp;quot;2&amp;quot;:513,&amp;quot;3&amp;quot;:{&amp;quot;1&amp;quot;:0},&amp;quot;12&amp;quot;:0}&quot; data-sheets-value=&quot;{&amp;quot;1&amp;quot;:2,&amp;quot;2&amp;quot;:&amp;quot;Maturity amount&amp;quot;}&quot; style=&quot;font-size:10pt;font-family:Arial;font-style:normal;&quot;&gt;Maturity amount&lt;/span&gt;" style="ellipse;whiteSpace=wrap;html=1;" vertex="1" parent="1">
          <mxGeometry x="-660" y="-185" width="110" height="50" as="geometry" />
        </mxCell>
        <mxCell id="FhZOoO67xV3kqyt6doWe-500" value="&lt;meta charset=&quot;utf-8&quot;&gt;&lt;span data-sheets-userformat=&quot;{&amp;quot;2&amp;quot;:513,&amp;quot;3&amp;quot;:{&amp;quot;1&amp;quot;:0},&amp;quot;12&amp;quot;:0}&quot; data-sheets-value=&quot;{&amp;quot;1&amp;quot;:2,&amp;quot;2&amp;quot;:&amp;quot;Maturity date&amp;quot;}&quot; style=&quot;font-size:10pt;font-family:Arial;font-style:normal;&quot;&gt;Maturity date&lt;/span&gt;" style="ellipse;whiteSpace=wrap;html=1;" vertex="1" parent="1">
          <mxGeometry x="-670" y="-125" width="110" height="50" as="geometry" />
        </mxCell>
        <mxCell id="FhZOoO67xV3kqyt6doWe-501" value="&lt;meta charset=&quot;utf-8&quot;&gt;&lt;span data-sheets-userformat=&quot;{&amp;quot;2&amp;quot;:513,&amp;quot;3&amp;quot;:{&amp;quot;1&amp;quot;:0},&amp;quot;12&amp;quot;:0}&quot; data-sheets-value=&quot;{&amp;quot;1&amp;quot;:2,&amp;quot;2&amp;quot;:&amp;quot;Date of Account Opening&amp;quot;}&quot; style=&quot;font-size:10pt;font-family:Arial;font-style:normal;&quot;&gt;Date of Account Opening&lt;/span&gt;" style="ellipse;whiteSpace=wrap;html=1;" vertex="1" parent="1">
          <mxGeometry x="-710" y="-65" width="110" height="50" as="geometry" />
        </mxCell>
        <mxCell id="FhZOoO67xV3kqyt6doWe-502" value="&lt;meta charset=&quot;utf-8&quot;&gt;&lt;span data-sheets-userformat=&quot;{&amp;quot;2&amp;quot;:513,&amp;quot;3&amp;quot;:{&amp;quot;1&amp;quot;:0},&amp;quot;12&amp;quot;:0}&quot; data-sheets-value=&quot;{&amp;quot;1&amp;quot;:2,&amp;quot;2&amp;quot;:&amp;quot;Maturity Instructions&amp;quot;}&quot; style=&quot;font-size:10pt;font-family:Arial;font-style:normal;&quot;&gt;Maturity Instructions&lt;/span&gt;" style="ellipse;whiteSpace=wrap;html=1;" vertex="1" parent="1">
          <mxGeometry x="-780" y="-15" width="110" height="50" as="geometry" />
        </mxCell>
        <mxCell id="FhZOoO67xV3kqyt6doWe-503" value="&lt;meta charset=&quot;utf-8&quot;&gt;&lt;span data-sheets-userformat=&quot;{&amp;quot;2&amp;quot;:513,&amp;quot;3&amp;quot;:{&amp;quot;1&amp;quot;:0},&amp;quot;12&amp;quot;:0}&quot; data-sheets-value=&quot;{&amp;quot;1&amp;quot;:2,&amp;quot;2&amp;quot;:&amp;quot;Nominee First Name&amp;quot;}&quot; style=&quot;font-size:10pt;font-family:Arial;font-style:normal;&quot;&gt;Nominee First Name&lt;/span&gt;" style="ellipse;whiteSpace=wrap;html=1;" vertex="1" parent="1">
          <mxGeometry x="-1095" y="-355" width="110" height="50" as="geometry" />
        </mxCell>
        <mxCell id="FhZOoO67xV3kqyt6doWe-504" value="&lt;meta charset=&quot;utf-8&quot;&gt;&lt;span data-sheets-userformat=&quot;{&amp;quot;2&amp;quot;:513,&amp;quot;3&amp;quot;:{&amp;quot;1&amp;quot;:0},&amp;quot;12&amp;quot;:0}&quot; data-sheets-value=&quot;{&amp;quot;1&amp;quot;:2,&amp;quot;2&amp;quot;:&amp;quot;Nominee Last Name&amp;quot;}&quot; style=&quot;font-size:10pt;font-family:Arial;font-style:normal;&quot;&gt;Nominee Last Name&lt;/span&gt;" style="ellipse;whiteSpace=wrap;html=1;" vertex="1" parent="1">
          <mxGeometry x="-1075" y="50" width="110" height="50" as="geometry" />
        </mxCell>
        <mxCell id="FhZOoO67xV3kqyt6doWe-505" value="&lt;meta charset=&quot;utf-8&quot;&gt;&lt;span data-sheets-userformat=&quot;{&amp;quot;2&amp;quot;:513,&amp;quot;3&amp;quot;:{&amp;quot;1&amp;quot;:0},&amp;quot;12&amp;quot;:0}&quot; data-sheets-value=&quot;{&amp;quot;1&amp;quot;:2,&amp;quot;2&amp;quot;:&amp;quot;Nominee Date of Birth&amp;quot;}&quot; style=&quot;font-size:10pt;font-family:Arial;font-style:normal;&quot;&gt;Nominee Date of Birth&lt;/span&gt;" style="ellipse;whiteSpace=wrap;html=1;" vertex="1" parent="1">
          <mxGeometry x="-1195" y="5" width="120" height="70" as="geometry" />
        </mxCell>
        <mxCell id="FhZOoO67xV3kqyt6doWe-506" value="&lt;meta charset=&quot;utf-8&quot;&gt;&lt;span data-sheets-userformat=&quot;{&amp;quot;2&amp;quot;:513,&amp;quot;3&amp;quot;:{&amp;quot;1&amp;quot;:0},&amp;quot;12&amp;quot;:0}&quot; data-sheets-value=&quot;{&amp;quot;1&amp;quot;:2,&amp;quot;2&amp;quot;:&amp;quot;Nominee PAN Number&amp;quot;}&quot; style=&quot;font-size:10pt;font-family:Arial;font-style:normal;&quot;&gt;Nominee PAN Number&lt;/span&gt;" style="ellipse;whiteSpace=wrap;html=1;" vertex="1" parent="1">
          <mxGeometry x="-1250" y="-50" width="110" height="50" as="geometry" />
        </mxCell>
        <mxCell id="FhZOoO67xV3kqyt6doWe-507" value="" style="endArrow=classic;html=1;rounded=0;exitX=0.5;exitY=0;exitDx=0;exitDy=0;entryX=0.5;entryY=1;entryDx=0;entryDy=0;" edge="1" parent="1" source="FhZOoO67xV3kqyt6doWe-492" target="FhZOoO67xV3kqyt6doWe-495">
          <mxGeometry width="50" height="50" relative="1" as="geometry">
            <mxPoint x="-902.5" y="-195" as="sourcePoint" />
            <mxPoint x="-890" y="-305" as="targetPoint" />
          </mxGeometry>
        </mxCell>
        <mxCell id="FhZOoO67xV3kqyt6doWe-508" value="" style="endArrow=classic;html=1;rounded=0;entryX=1;entryY=0.5;entryDx=0;entryDy=0;exitX=0;exitY=0;exitDx=0;exitDy=0;" edge="1" parent="1" source="FhZOoO67xV3kqyt6doWe-492" target="FhZOoO67xV3kqyt6doWe-493">
          <mxGeometry width="50" height="50" relative="1" as="geometry">
            <mxPoint x="-950" y="-195" as="sourcePoint" />
            <mxPoint x="-1050" y="-205" as="targetPoint" />
          </mxGeometry>
        </mxCell>
        <mxCell id="FhZOoO67xV3kqyt6doWe-509" value="" style="endArrow=classic;html=1;rounded=0;entryX=1;entryY=0.5;entryDx=0;entryDy=0;exitX=-0.008;exitY=0.657;exitDx=0;exitDy=0;exitPerimeter=0;" edge="1" parent="1" source="FhZOoO67xV3kqyt6doWe-492" target="FhZOoO67xV3kqyt6doWe-494">
          <mxGeometry width="50" height="50" relative="1" as="geometry">
            <mxPoint x="-960" y="-175" as="sourcePoint" />
            <mxPoint x="-1060" y="-185" as="targetPoint" />
          </mxGeometry>
        </mxCell>
        <mxCell id="FhZOoO67xV3kqyt6doWe-510" value="" style="endArrow=classic;html=1;rounded=0;entryX=0;entryY=1;entryDx=0;entryDy=0;exitX=0.75;exitY=0;exitDx=0;exitDy=0;" edge="1" parent="1" source="FhZOoO67xV3kqyt6doWe-492" target="FhZOoO67xV3kqyt6doWe-496">
          <mxGeometry width="50" height="50" relative="1" as="geometry">
            <mxPoint x="-870" y="-195" as="sourcePoint" />
            <mxPoint x="-855" y="-305" as="targetPoint" />
          </mxGeometry>
        </mxCell>
        <mxCell id="FhZOoO67xV3kqyt6doWe-511" value="" style="endArrow=classic;html=1;rounded=0;entryX=0;entryY=0.5;entryDx=0;entryDy=0;exitX=0.877;exitY=0.075;exitDx=0;exitDy=0;exitPerimeter=0;" edge="1" parent="1" source="FhZOoO67xV3kqyt6doWe-492" target="FhZOoO67xV3kqyt6doWe-497">
          <mxGeometry width="50" height="50" relative="1" as="geometry">
            <mxPoint x="-840" y="-195" as="sourcePoint" />
            <mxPoint x="-764" y="-302" as="targetPoint" />
          </mxGeometry>
        </mxCell>
        <mxCell id="FhZOoO67xV3kqyt6doWe-512" value="" style="endArrow=classic;html=1;rounded=0;entryX=0;entryY=0.5;entryDx=0;entryDy=0;exitX=1;exitY=0.5;exitDx=0;exitDy=0;" edge="1" parent="1" source="FhZOoO67xV3kqyt6doWe-492" target="FhZOoO67xV3kqyt6doWe-498">
          <mxGeometry width="50" height="50" relative="1" as="geometry">
            <mxPoint x="-840" y="-177.5" as="sourcePoint" />
            <mxPoint x="-700" y="-262.5" as="targetPoint" />
          </mxGeometry>
        </mxCell>
        <mxCell id="FhZOoO67xV3kqyt6doWe-513" value="" style="endArrow=classic;html=1;rounded=0;exitX=1;exitY=0.5;exitDx=0;exitDy=0;entryX=0;entryY=0.5;entryDx=0;entryDy=0;" edge="1" parent="1" source="FhZOoO67xV3kqyt6doWe-492" target="FhZOoO67xV3kqyt6doWe-499">
          <mxGeometry width="50" height="50" relative="1" as="geometry">
            <mxPoint x="-840" y="-165" as="sourcePoint" />
            <mxPoint x="-680" y="-197.5" as="targetPoint" />
          </mxGeometry>
        </mxCell>
        <mxCell id="FhZOoO67xV3kqyt6doWe-514" value="" style="endArrow=classic;html=1;rounded=0;entryX=0;entryY=0.5;entryDx=0;entryDy=0;exitX=1;exitY=1;exitDx=0;exitDy=0;" edge="1" parent="1" source="FhZOoO67xV3kqyt6doWe-492" target="FhZOoO67xV3kqyt6doWe-500">
          <mxGeometry width="50" height="50" relative="1" as="geometry">
            <mxPoint x="-860" y="-155" as="sourcePoint" />
            <mxPoint x="-700" y="-197.5" as="targetPoint" />
          </mxGeometry>
        </mxCell>
        <mxCell id="FhZOoO67xV3kqyt6doWe-515" value="" style="endArrow=classic;html=1;rounded=0;exitX=0.75;exitY=1;exitDx=0;exitDy=0;entryX=0.224;entryY=0.025;entryDx=0;entryDy=0;entryPerimeter=0;" edge="1" parent="1" source="FhZOoO67xV3kqyt6doWe-492" target="FhZOoO67xV3kqyt6doWe-501">
          <mxGeometry width="50" height="50" relative="1" as="geometry">
            <mxPoint x="-880" y="-153.75" as="sourcePoint" />
            <mxPoint x="-720" y="-196.25" as="targetPoint" />
          </mxGeometry>
        </mxCell>
        <mxCell id="FhZOoO67xV3kqyt6doWe-516" value="" style="endArrow=classic;html=1;rounded=0;entryX=0;entryY=0;entryDx=0;entryDy=0;exitX=0.565;exitY=1.04;exitDx=0;exitDy=0;exitPerimeter=0;" edge="1" parent="1" source="FhZOoO67xV3kqyt6doWe-492" target="FhZOoO67xV3kqyt6doWe-502">
          <mxGeometry width="50" height="50" relative="1" as="geometry">
            <mxPoint x="-900" y="-155" as="sourcePoint" />
            <mxPoint x="-740" y="-197.5" as="targetPoint" />
          </mxGeometry>
        </mxCell>
        <mxCell id="FhZOoO67xV3kqyt6doWe-517" value="" style="endArrow=classic;html=1;rounded=0;entryX=0.571;entryY=-0.015;entryDx=0;entryDy=0;exitX=0.207;exitY=0.981;exitDx=0;exitDy=0;exitPerimeter=0;entryPerimeter=0;" edge="1" parent="1" source="FhZOoO67xV3kqyt6doWe-492" target="FhZOoO67xV3kqyt6doWe-505">
          <mxGeometry width="50" height="50" relative="1" as="geometry">
            <mxPoint x="-925" y="-155" as="sourcePoint" />
            <mxPoint x="-960" y="45" as="targetPoint" />
          </mxGeometry>
        </mxCell>
        <mxCell id="FhZOoO67xV3kqyt6doWe-518" value="" style="endArrow=classic;html=1;rounded=0;entryX=0.5;entryY=1;entryDx=0;entryDy=0;exitX=0.25;exitY=0;exitDx=0;exitDy=0;" edge="1" parent="1" source="FhZOoO67xV3kqyt6doWe-492" target="FhZOoO67xV3kqyt6doWe-503">
          <mxGeometry width="50" height="50" relative="1" as="geometry">
            <mxPoint x="-890" y="-145" as="sourcePoint" />
            <mxPoint x="-845" y="13" as="targetPoint" />
          </mxGeometry>
        </mxCell>
        <mxCell id="FhZOoO67xV3kqyt6doWe-519" value="" style="endArrow=classic;html=1;rounded=0;entryX=0.455;entryY=-0.022;entryDx=0;entryDy=0;exitX=0.423;exitY=1.01;exitDx=0;exitDy=0;exitPerimeter=0;entryPerimeter=0;" edge="1" parent="1" source="FhZOoO67xV3kqyt6doWe-492" target="FhZOoO67xV3kqyt6doWe-504">
          <mxGeometry width="50" height="50" relative="1" as="geometry">
            <mxPoint x="-900" y="-155" as="sourcePoint" />
            <mxPoint x="-935" y="45" as="targetPoint" />
          </mxGeometry>
        </mxCell>
        <mxCell id="FhZOoO67xV3kqyt6doWe-520" value="" style="endArrow=classic;html=1;rounded=0;exitX=0;exitY=1;exitDx=0;exitDy=0;entryX=1;entryY=0.5;entryDx=0;entryDy=0;" edge="1" parent="1" source="FhZOoO67xV3kqyt6doWe-492" target="FhZOoO67xV3kqyt6doWe-523">
          <mxGeometry width="50" height="50" relative="1" as="geometry">
            <mxPoint x="-970" y="-150" as="sourcePoint" />
            <mxPoint x="-1125" y="-95" as="targetPoint" />
          </mxGeometry>
        </mxCell>
        <mxCell id="FhZOoO67xV3kqyt6doWe-521" value="&lt;meta charset=&quot;utf-8&quot;&gt;&lt;span data-sheets-userformat=&quot;{&amp;quot;2&amp;quot;:513,&amp;quot;3&amp;quot;:{&amp;quot;1&amp;quot;:0},&amp;quot;12&amp;quot;:0}&quot; data-sheets-value=&quot;{&amp;quot;1&amp;quot;:2,&amp;quot;2&amp;quot;:&amp;quot;Nominee PAN Number&amp;quot;}&quot; style=&quot;font-size:10pt;font-family:Arial;font-style:normal;&quot;&gt;Nominee PAN Number&lt;/span&gt;" style="ellipse;whiteSpace=wrap;html=1;" vertex="1" parent="1">
          <mxGeometry x="-1280" y="-125" width="110" height="50" as="geometry" />
        </mxCell>
        <mxCell id="FhZOoO67xV3kqyt6doWe-522" value="" style="endArrow=classic;html=1;rounded=0;entryX=0.5;entryY=0;entryDx=0;entryDy=0;exitX=0;exitY=1;exitDx=0;exitDy=0;" edge="1" parent="1" source="FhZOoO67xV3kqyt6doWe-492" target="FhZOoO67xV3kqyt6doWe-521">
          <mxGeometry width="50" height="50" relative="1" as="geometry">
            <mxPoint x="-960" y="-140" as="sourcePoint" />
            <mxPoint x="-1090" y="20" as="targetPoint" />
          </mxGeometry>
        </mxCell>
        <mxCell id="FhZOoO67xV3kqyt6doWe-523" value="&lt;meta charset=&quot;utf-8&quot;&gt;&lt;span data-sheets-userformat=&quot;{&amp;quot;2&amp;quot;:513,&amp;quot;3&amp;quot;:{&amp;quot;1&amp;quot;:0},&amp;quot;12&amp;quot;:0}&quot; data-sheets-value=&quot;{&amp;quot;1&amp;quot;:2,&amp;quot;2&amp;quot;:&amp;quot;Account Type&amp;quot;}&quot; style=&quot;font-size:10pt;font-family:Arial;font-style:normal;&quot;&gt;Account Type&lt;/span&gt;" style="ellipse;whiteSpace=wrap;html=1;" vertex="1" parent="1">
          <mxGeometry x="-1280" y="-190" width="110" height="50" as="geometry" />
        </mxCell>
        <mxCell id="FhZOoO67xV3kqyt6doWe-526" value="" style="endArrow=none;html=1;rounded=0;entryX=0.5;entryY=1;entryDx=0;entryDy=0;exitX=0.25;exitY=0;exitDx=0;exitDy=0;" edge="1" parent="1" source="FhZOoO67xV3kqyt6doWe-459" target="FhZOoO67xV3kqyt6doWe-527">
          <mxGeometry width="50" height="50" relative="1" as="geometry">
            <mxPoint x="-40" y="-120" as="sourcePoint" />
            <mxPoint x="-530" y="-360" as="targetPoint" />
          </mxGeometry>
        </mxCell>
        <mxCell id="FhZOoO67xV3kqyt6doWe-527" value="HAS" style="rhombus;whiteSpace=wrap;html=1;" vertex="1" parent="1">
          <mxGeometry x="-215" y="-275" width="80" height="80" as="geometry" />
        </mxCell>
        <mxCell id="FhZOoO67xV3kqyt6doWe-528" value="" style="endArrow=none;html=1;rounded=0;entryX=0;entryY=1;entryDx=0;entryDy=0;exitX=0.5;exitY=0;exitDx=0;exitDy=0;" edge="1" parent="1" source="FhZOoO67xV3kqyt6doWe-527" target="FhZOoO67xV3kqyt6doWe-99">
          <mxGeometry width="50" height="50" relative="1" as="geometry">
            <mxPoint x="-180" y="-280" as="sourcePoint" />
            <mxPoint x="-295" y="-480" as="targetPoint" />
          </mxGeometry>
        </mxCell>
        <mxCell id="FhZOoO67xV3kqyt6doWe-529" value="" style="rhombus;whiteSpace=wrap;html=1;" vertex="1" parent="1">
          <mxGeometry x="-1280" y="670" width="130" height="100" as="geometry" />
        </mxCell>
        <mxCell id="FhZOoO67xV3kqyt6doWe-530" value="HAS" style="rhombus;whiteSpace=wrap;html=1;" vertex="1" parent="1">
          <mxGeometry x="-1270" y="680" width="110" height="80" as="geometry" />
        </mxCell>
        <mxCell id="FhZOoO67xV3kqyt6doWe-532" value="" style="endArrow=none;html=1;rounded=0;entryX=1;entryY=1;entryDx=0;entryDy=0;exitX=0.5;exitY=0;exitDx=0;exitDy=0;" edge="1" parent="1" source="FhZOoO67xV3kqyt6doWe-530" target="FhZOoO67xV3kqyt6doWe-131">
          <mxGeometry width="50" height="50" relative="1" as="geometry">
            <mxPoint x="-1265" y="645" as="sourcePoint" />
            <mxPoint x="-1215" y="595" as="targetPoint" />
          </mxGeometry>
        </mxCell>
        <mxCell id="FhZOoO67xV3kqyt6doWe-533" value="" style="endArrow=none;html=1;rounded=0;entryX=0.5;entryY=1;entryDx=0;entryDy=0;exitX=0.356;exitY=-0.021;exitDx=0;exitDy=0;exitPerimeter=0;" edge="1" parent="1" source="FhZOoO67xV3kqyt6doWe-380" target="FhZOoO67xV3kqyt6doWe-530">
          <mxGeometry width="50" height="50" relative="1" as="geometry">
            <mxPoint x="-1040" y="850" as="sourcePoint" />
            <mxPoint x="-1140" y="755" as="targetPoint" />
          </mxGeometry>
        </mxCell>
        <mxCell id="FhZOoO67xV3kqyt6doWe-534" value="&lt;meta charset=&quot;utf-8&quot;&gt;&lt;span data-sheets-userformat=&quot;{&amp;quot;2&amp;quot;:513,&amp;quot;3&amp;quot;:{&amp;quot;1&amp;quot;:0},&amp;quot;12&amp;quot;:0}&quot; data-sheets-value=&quot;{&amp;quot;1&amp;quot;:2,&amp;quot;2&amp;quot;:&amp;quot;Date of Birth&amp;quot;}&quot; style=&quot;font-size:10pt;font-family:Arial;font-style:normal;&quot;&gt;Date of Birth&lt;/span&gt;" style="ellipse;whiteSpace=wrap;html=1;" vertex="1" parent="1">
          <mxGeometry x="1070" y="-315" width="110" height="50" as="geometry" />
        </mxCell>
        <mxCell id="FhZOoO67xV3kqyt6doWe-535" value="&lt;meta charset=&quot;utf-8&quot;&gt;&lt;span data-sheets-userformat=&quot;{&amp;quot;2&amp;quot;:513,&amp;quot;3&amp;quot;:{&amp;quot;1&amp;quot;:0},&amp;quot;12&amp;quot;:0}&quot; data-sheets-value=&quot;{&amp;quot;1&amp;quot;:2,&amp;quot;2&amp;quot;:&amp;quot;Address&amp;quot;}&quot; style=&quot;font-size:10pt;font-family:Arial;font-style:normal;&quot;&gt;Address&lt;/span&gt;" style="ellipse;whiteSpace=wrap;html=1;" vertex="1" parent="1">
          <mxGeometry x="1040" y="-380" width="110" height="50" as="geometry" />
        </mxCell>
        <mxCell id="FhZOoO67xV3kqyt6doWe-536" value="" style="endArrow=classic;html=1;rounded=0;entryX=0;entryY=0.5;entryDx=0;entryDy=0;exitX=1;exitY=0.75;exitDx=0;exitDy=0;" edge="1" parent="1" source="FhZOoO67xV3kqyt6doWe-538" target="FhZOoO67xV3kqyt6doWe-534">
          <mxGeometry width="50" height="50" relative="1" as="geometry">
            <mxPoint x="880" y="-650" as="sourcePoint" />
            <mxPoint x="1040" y="-692.5" as="targetPoint" />
          </mxGeometry>
        </mxCell>
        <mxCell id="FhZOoO67xV3kqyt6doWe-537" value="" style="endArrow=classic;html=1;rounded=0;exitX=1;exitY=0;exitDx=0;exitDy=0;entryX=0.079;entryY=0.189;entryDx=0;entryDy=0;entryPerimeter=0;" edge="1" parent="1" source="FhZOoO67xV3kqyt6doWe-538" target="FhZOoO67xV3kqyt6doWe-535">
          <mxGeometry width="50" height="50" relative="1" as="geometry">
            <mxPoint x="860" y="-648.75" as="sourcePoint" />
            <mxPoint x="1020" y="-691.25" as="targetPoint" />
          </mxGeometry>
        </mxCell>
        <mxCell id="FhZOoO67xV3kqyt6doWe-538" value="&lt;meta charset=&quot;utf-8&quot;&gt;&lt;span data-sheets-userformat=&quot;{&amp;quot;2&amp;quot;:16897,&amp;quot;3&amp;quot;:{&amp;quot;1&amp;quot;:0},&amp;quot;12&amp;quot;:0,&amp;quot;17&amp;quot;:1}&quot; data-sheets-value=&quot;{&amp;quot;1&amp;quot;:2,&amp;quot;2&amp;quot;:&amp;quot;Beneficiary&amp;quot;}&quot; style=&quot;font-size:10pt;font-family:Arial;font-weight:bold;font-style:normal;&quot;&gt;Beneficiary&lt;/span&gt;" style="rounded=0;whiteSpace=wrap;html=1;" vertex="1" parent="1">
          <mxGeometry x="835" y="-305" width="120" height="40" as="geometry" />
        </mxCell>
        <mxCell id="FhZOoO67xV3kqyt6doWe-539" value="&lt;meta charset=&quot;utf-8&quot;&gt;&lt;span data-sheets-userformat=&quot;{&amp;quot;2&amp;quot;:513,&amp;quot;3&amp;quot;:{&amp;quot;1&amp;quot;:0},&amp;quot;12&amp;quot;:0}&quot; data-sheets-value=&quot;{&amp;quot;1&amp;quot;:2,&amp;quot;2&amp;quot;:&amp;quot;Benificiary Nickname&amp;quot;}&quot; style=&quot;font-size:10pt;font-family:Arial;font-style:normal;&quot;&gt;Benificiary Nickname&lt;/span&gt;" style="ellipse;whiteSpace=wrap;html=1;" vertex="1" parent="1">
          <mxGeometry x="620" y="-380" width="110" height="50" as="geometry" />
        </mxCell>
        <mxCell id="FhZOoO67xV3kqyt6doWe-540" value="&lt;meta charset=&quot;utf-8&quot;&gt;&lt;span data-sheets-userformat=&quot;{&amp;quot;2&amp;quot;:513,&amp;quot;3&amp;quot;:{&amp;quot;1&amp;quot;:0},&amp;quot;12&amp;quot;:0}&quot; data-sheets-value=&quot;{&amp;quot;1&amp;quot;:2,&amp;quot;2&amp;quot;:&amp;quot;Benificiary ID&amp;quot;}&quot; style=&quot;font-size:10pt;font-family:Arial;font-style:normal;&quot;&gt;Benificiary ID&lt;/span&gt;" style="ellipse;whiteSpace=wrap;html=1;" vertex="1" parent="1">
          <mxGeometry x="600" y="-305" width="110" height="50" as="geometry" />
        </mxCell>
        <mxCell id="FhZOoO67xV3kqyt6doWe-541" value="&lt;meta charset=&quot;utf-8&quot;&gt;&lt;span data-sheets-userformat=&quot;{&amp;quot;2&amp;quot;:513,&amp;quot;3&amp;quot;:{&amp;quot;1&amp;quot;:0},&amp;quot;12&amp;quot;:0}&quot; data-sheets-value=&quot;{&amp;quot;1&amp;quot;:2,&amp;quot;2&amp;quot;:&amp;quot;Beneficiary First Name&amp;quot;}&quot; style=&quot;font-size:10pt;font-family:Arial;font-style:normal;&quot;&gt;Beneficiary First Name&lt;/span&gt;" style="ellipse;whiteSpace=wrap;html=1;" vertex="1" parent="1">
          <mxGeometry x="700" y="-440" width="110" height="50" as="geometry" />
        </mxCell>
        <mxCell id="FhZOoO67xV3kqyt6doWe-542" value="&lt;meta charset=&quot;utf-8&quot;&gt;&lt;span data-sheets-userformat=&quot;{&amp;quot;2&amp;quot;:513,&amp;quot;3&amp;quot;:{&amp;quot;1&amp;quot;:0},&amp;quot;12&amp;quot;:0}&quot; data-sheets-value=&quot;{&amp;quot;1&amp;quot;:2,&amp;quot;2&amp;quot;:&amp;quot;Beneficiary Last Name&amp;quot;}&quot; style=&quot;font-size:10pt;font-family:Arial;font-style:normal;&quot;&gt;Beneficiary Last Name&lt;/span&gt;" style="ellipse;whiteSpace=wrap;html=1;" vertex="1" parent="1">
          <mxGeometry x="830" y="-450" width="110" height="50" as="geometry" />
        </mxCell>
        <mxCell id="FhZOoO67xV3kqyt6doWe-543" value="&lt;meta charset=&quot;utf-8&quot;&gt;&lt;span data-sheets-userformat=&quot;{&amp;quot;2&amp;quot;:513,&amp;quot;3&amp;quot;:{&amp;quot;1&amp;quot;:0},&amp;quot;12&amp;quot;:0}&quot; data-sheets-value=&quot;{&amp;quot;1&amp;quot;:2,&amp;quot;2&amp;quot;:&amp;quot;Beneficiary Account Number&amp;quot;}&quot; style=&quot;font-size:10pt;font-family:Arial;font-style:normal;&quot;&gt;Beneficiary Account Number&lt;/span&gt;" style="ellipse;whiteSpace=wrap;html=1;fontStyle=5" vertex="1" parent="1">
          <mxGeometry x="960" y="-460" width="140" height="70" as="geometry" />
        </mxCell>
        <mxCell id="FhZOoO67xV3kqyt6doWe-544" value="" style="endArrow=classic;html=1;rounded=0;entryX=0.368;entryY=1.013;entryDx=0;entryDy=0;entryPerimeter=0;exitX=0.542;exitY=-0.008;exitDx=0;exitDy=0;exitPerimeter=0;" edge="1" parent="1" source="FhZOoO67xV3kqyt6doWe-538" target="FhZOoO67xV3kqyt6doWe-542">
          <mxGeometry width="50" height="50" relative="1" as="geometry">
            <mxPoint x="867.5" y="-290" as="sourcePoint" />
            <mxPoint x="882.5" y="-400" as="targetPoint" />
          </mxGeometry>
        </mxCell>
        <mxCell id="FhZOoO67xV3kqyt6doWe-545" value="" style="endArrow=classic;html=1;rounded=0;entryX=1;entryY=0.5;entryDx=0;entryDy=0;exitX=0.079;exitY=0.04;exitDx=0;exitDy=0;exitPerimeter=0;" edge="1" parent="1" source="FhZOoO67xV3kqyt6doWe-538" target="FhZOoO67xV3kqyt6doWe-539">
          <mxGeometry width="50" height="50" relative="1" as="geometry">
            <mxPoint x="820" y="-290" as="sourcePoint" />
            <mxPoint x="720" y="-300" as="targetPoint" />
          </mxGeometry>
        </mxCell>
        <mxCell id="FhZOoO67xV3kqyt6doWe-546" value="" style="endArrow=classic;html=1;rounded=0;entryX=0.969;entryY=0.345;entryDx=0;entryDy=0;exitX=0;exitY=0.5;exitDx=0;exitDy=0;entryPerimeter=0;" edge="1" parent="1" source="FhZOoO67xV3kqyt6doWe-538" target="FhZOoO67xV3kqyt6doWe-540">
          <mxGeometry width="50" height="50" relative="1" as="geometry">
            <mxPoint x="810" y="-270" as="sourcePoint" />
            <mxPoint x="710" y="-280" as="targetPoint" />
          </mxGeometry>
        </mxCell>
        <mxCell id="FhZOoO67xV3kqyt6doWe-547" value="" style="endArrow=classic;html=1;rounded=0;entryX=0.594;entryY=1.019;entryDx=0;entryDy=0;exitX=0.25;exitY=0;exitDx=0;exitDy=0;entryPerimeter=0;" edge="1" parent="1" source="FhZOoO67xV3kqyt6doWe-538" target="FhZOoO67xV3kqyt6doWe-541">
          <mxGeometry width="50" height="50" relative="1" as="geometry">
            <mxPoint x="850" y="-325" as="sourcePoint" />
            <mxPoint x="760" y="-390" as="targetPoint" />
          </mxGeometry>
        </mxCell>
        <mxCell id="FhZOoO67xV3kqyt6doWe-548" value="" style="endArrow=classic;html=1;rounded=0;entryX=0;entryY=1;entryDx=0;entryDy=0;exitX=0.675;exitY=0.05;exitDx=0;exitDy=0;exitPerimeter=0;" edge="1" parent="1" source="FhZOoO67xV3kqyt6doWe-538" target="FhZOoO67xV3kqyt6doWe-543">
          <mxGeometry width="50" height="50" relative="1" as="geometry">
            <mxPoint x="900" y="-290" as="sourcePoint" />
            <mxPoint x="915" y="-400" as="targetPoint" />
          </mxGeometry>
        </mxCell>
        <mxCell id="FhZOoO67xV3kqyt6doWe-551" value="" style="rhombus;whiteSpace=wrap;html=1;" vertex="1" parent="1">
          <mxGeometry x="530" y="-135" width="130" height="100" as="geometry" />
        </mxCell>
        <mxCell id="FhZOoO67xV3kqyt6doWe-552" value="HAS" style="rhombus;whiteSpace=wrap;html=1;" vertex="1" parent="1">
          <mxGeometry x="540" y="-125" width="110" height="80" as="geometry" />
        </mxCell>
        <mxCell id="FhZOoO67xV3kqyt6doWe-553" value="" style="endArrow=none;html=1;rounded=0;entryX=0;entryY=0.5;entryDx=0;entryDy=0;exitX=1;exitY=0;exitDx=0;exitDy=0;" edge="1" parent="1" source="FhZOoO67xV3kqyt6doWe-459" target="FhZOoO67xV3kqyt6doWe-552">
          <mxGeometry width="50" height="50" relative="1" as="geometry">
            <mxPoint x="310" y="15" as="sourcePoint" />
            <mxPoint x="360" y="-35" as="targetPoint" />
          </mxGeometry>
        </mxCell>
        <mxCell id="FhZOoO67xV3kqyt6doWe-554" value="" style="endArrow=none;html=1;rounded=0;entryX=0.5;entryY=1;entryDx=0;entryDy=0;exitX=1;exitY=0.5;exitDx=0;exitDy=0;" edge="1" parent="1" source="FhZOoO67xV3kqyt6doWe-552" target="FhZOoO67xV3kqyt6doWe-538">
          <mxGeometry width="50" height="50" relative="1" as="geometry">
            <mxPoint x="620" y="-80" as="sourcePoint" />
            <mxPoint x="970" y="-250" as="targetPoint" />
          </mxGeometry>
        </mxCell>
        <mxCell id="FhZOoO67xV3kqyt6doWe-557" value="" style="rhombus;whiteSpace=wrap;html=1;" vertex="1" parent="1">
          <mxGeometry x="-95" y="1015" width="130" height="100" as="geometry" />
        </mxCell>
        <mxCell id="FhZOoO67xV3kqyt6doWe-558" value="HAS" style="rhombus;whiteSpace=wrap;html=1;" vertex="1" parent="1">
          <mxGeometry x="-85" y="1025" width="110" height="80" as="geometry" />
        </mxCell>
        <mxCell id="FhZOoO67xV3kqyt6doWe-559" value="" style="endArrow=none;html=1;rounded=0;exitX=1;exitY=0;exitDx=0;exitDy=0;entryX=0;entryY=0.5;entryDx=0;entryDy=0;" edge="1" parent="1" source="FhZOoO67xV3kqyt6doWe-380" target="FhZOoO67xV3kqyt6doWe-558">
          <mxGeometry width="50" height="50" relative="1" as="geometry">
            <mxPoint x="-140" y="1020" as="sourcePoint" />
            <mxPoint x="-90" y="970" as="targetPoint" />
          </mxGeometry>
        </mxCell>
        <mxCell id="FhZOoO67xV3kqyt6doWe-560" value="" style="endArrow=none;html=1;rounded=0;entryX=0;entryY=0.75;entryDx=0;entryDy=0;exitX=1;exitY=0.5;exitDx=0;exitDy=0;" edge="1" parent="1" source="FhZOoO67xV3kqyt6doWe-558" target="FhZOoO67xV3kqyt6doWe-205">
          <mxGeometry width="50" height="50" relative="1" as="geometry">
            <mxPoint x="-140" y="1020" as="sourcePoint" />
            <mxPoint x="-90" y="970" as="targetPoint" />
          </mxGeometry>
        </mxCell>
        <mxCell id="FhZOoO67xV3kqyt6doWe-565" value="1" style="text;html=1;strokeColor=none;fillColor=none;align=center;verticalAlign=middle;whiteSpace=wrap;rounded=0;" vertex="1" parent="1">
          <mxGeometry x="-200" y="860" width="60" height="30" as="geometry" />
        </mxCell>
        <mxCell id="FhZOoO67xV3kqyt6doWe-566" value="N" style="text;html=1;strokeColor=none;fillColor=none;align=center;verticalAlign=middle;whiteSpace=wrap;rounded=0;" vertex="1" parent="1">
          <mxGeometry x="-340" y="870" width="60" height="30" as="geometry" />
        </mxCell>
        <mxCell id="FhZOoO67xV3kqyt6doWe-567" value="1" style="text;html=1;strokeColor=none;fillColor=none;align=center;verticalAlign=middle;whiteSpace=wrap;rounded=0;" vertex="1" parent="1">
          <mxGeometry x="-45" y="860" width="60" height="30" as="geometry" />
        </mxCell>
        <mxCell id="FhZOoO67xV3kqyt6doWe-568" value="M" style="text;html=1;strokeColor=none;fillColor=none;align=center;verticalAlign=middle;whiteSpace=wrap;rounded=0;" vertex="1" parent="1">
          <mxGeometry x="110" y="820" width="60" height="30" as="geometry" />
        </mxCell>
        <mxCell id="FhZOoO67xV3kqyt6doWe-569" value="1" style="text;html=1;strokeColor=none;fillColor=none;align=center;verticalAlign=middle;whiteSpace=wrap;rounded=0;" vertex="1" parent="1">
          <mxGeometry x="-145" y="1035" width="60" height="30" as="geometry" />
        </mxCell>
        <mxCell id="FhZOoO67xV3kqyt6doWe-570" value="N" style="text;html=1;strokeColor=none;fillColor=none;align=center;verticalAlign=middle;whiteSpace=wrap;rounded=0;" vertex="1" parent="1">
          <mxGeometry x="20" y="1035" width="60" height="30" as="geometry" />
        </mxCell>
        <mxCell id="FhZOoO67xV3kqyt6doWe-571" value="N" style="text;html=1;strokeColor=none;fillColor=none;align=center;verticalAlign=middle;whiteSpace=wrap;rounded=0;" vertex="1" parent="1">
          <mxGeometry x="-160" y="460" width="60" height="30" as="geometry" />
        </mxCell>
        <mxCell id="FhZOoO67xV3kqyt6doWe-572" value="1" style="text;html=1;strokeColor=none;fillColor=none;align=center;verticalAlign=middle;whiteSpace=wrap;rounded=0;" vertex="1" parent="1">
          <mxGeometry x="-340" y="465" width="60" height="30" as="geometry" />
        </mxCell>
        <mxCell id="FhZOoO67xV3kqyt6doWe-573" value="1" style="text;html=1;strokeColor=none;fillColor=none;align=center;verticalAlign=middle;whiteSpace=wrap;rounded=0;" vertex="1" parent="1">
          <mxGeometry x="-585" y="480" width="60" height="30" as="geometry" />
        </mxCell>
        <mxCell id="FhZOoO67xV3kqyt6doWe-574" value="N" style="text;html=1;strokeColor=none;fillColor=none;align=center;verticalAlign=middle;whiteSpace=wrap;rounded=0;" vertex="1" parent="1">
          <mxGeometry x="-775" y="450" width="60" height="30" as="geometry" />
        </mxCell>
        <mxCell id="FhZOoO67xV3kqyt6doWe-575" value="1" style="text;html=1;strokeColor=none;fillColor=none;align=center;verticalAlign=middle;whiteSpace=wrap;rounded=0;" vertex="1" parent="1">
          <mxGeometry x="-1185" y="750" width="60" height="30" as="geometry" />
        </mxCell>
        <mxCell id="FhZOoO67xV3kqyt6doWe-576" value="1" style="text;html=1;strokeColor=none;fillColor=none;align=center;verticalAlign=middle;whiteSpace=wrap;rounded=0;" vertex="1" parent="1">
          <mxGeometry x="-1240" y="635" width="60" height="30" as="geometry" />
        </mxCell>
        <mxCell id="FhZOoO67xV3kqyt6doWe-577" value="N" style="text;html=1;strokeColor=none;fillColor=none;align=center;verticalAlign=middle;whiteSpace=wrap;rounded=0;" vertex="1" parent="1">
          <mxGeometry x="470" y="-115" width="60" height="30" as="geometry" />
        </mxCell>
        <mxCell id="FhZOoO67xV3kqyt6doWe-578" value="N" style="text;html=1;strokeColor=none;fillColor=none;align=center;verticalAlign=middle;whiteSpace=wrap;rounded=0;" vertex="1" parent="1">
          <mxGeometry x="660" y="-100" width="60" height="30" as="geometry" />
        </mxCell>
        <mxCell id="FhZOoO67xV3kqyt6doWe-579" value="N" style="text;html=1;strokeColor=none;fillColor=none;align=center;verticalAlign=middle;whiteSpace=wrap;rounded=0;" vertex="1" parent="1">
          <mxGeometry x="-240" y="-295" width="60" height="30" as="geometry" />
        </mxCell>
        <mxCell id="FhZOoO67xV3kqyt6doWe-580" value="1" style="text;html=1;strokeColor=none;fillColor=none;align=center;verticalAlign=middle;whiteSpace=wrap;rounded=0;" vertex="1" parent="1">
          <mxGeometry x="-170" y="-205" width="60" height="30" as="geometry" />
        </mxCell>
      </root>
    </mxGraphModel>
  </diagram>
</mxfile>
